<svg xmlns="http://www.w3.org/2000/svg" viewBox="0 0 220 220">
  <!-- Background Circle -->
  <circle cx="110" cy="110" r="90" fill="#f0f9ff" />
  
  <!-- Dashboard Main Frame -->
  <rect x="45" y="45" width="130" height="100" rx="6" ry="6" fill="white" stroke="#0369a1" stroke-width="2.5" />
  <rect x="45" y="45" width="130" height="22" rx="6" ry="6" fill="#0ea5e9" stroke="#0369a1" stroke-width="0" />
  
  <!-- Dashboard Header Elements -->
  <circle cx="58" cy="56" r="4" fill="#f0f9ff" />
  <circle cx="73" cy="56" r="4" fill="#f0f9ff" />
  <circle cx="88" cy="56" r="4" fill="#f0f9ff" />
  <rect x="105" y="52" width="55" height="8" rx="4" ry="4" fill="#38bdf8" />
  
  <!-- Dashboard Content - Left Side Analytics -->
  <g transform="translate(70, 95)">
    <!-- Column Chart -->
    <rect x="-20" y="-18" width="40" height="36" rx="2" ry="2" fill="#f1f5f9" stroke="#0ea5e9" stroke-width="1" />
    <rect x="-15" y="5" width="6" height="8" fill="#0ea5e9" />
    <rect x="-5" y="-5" width="6" height="18" fill="#0ea5e9" />
    <rect x="5" y="-10" width="6" height="23" fill="#0ea5e9" />
    <rect x="15" y="0" width="6" height="13" fill="#0ea5e9" />
    
    <!-- Trend Line -->
    <path d="M-15,0 L-2,-8 L8,-13 L18,-5" fill="none" stroke="#0369a1" stroke-width="2" stroke-linecap="round" />
    <circle cx="-15" cy="0" r="2" fill="#0369a1" />
    <circle cx="-2" cy="-8" r="2" fill="#0369a1" />
    <circle cx="8" cy="-13" r="2" fill="#0369a1" />
    <circle cx="18" cy="-5" r="2" fill="#0369a1" />
  </g>
  
  <!-- Dashboard Content - Right Side Analytics -->
  <g transform="translate(150, 95)">
    <!-- Pie Chart -->
    <circle cx="0" cy="0" r="18" fill="#f1f5f9" stroke="#0ea5e9" stroke-width="1" />
    <path d="M0,0 L18,0 A18,18 0 0,1 9,15.6 Z" fill="#0ea5e9" />
    <path d="M0,0 L9,15.6 A18,18 0 0,1 -9,15.6 Z" fill="#0284c7" />
    <path d="M0,0 L-9,15.6 A18,18 0 0,1 -18,0 Z" fill="#0369a1" />
    <path d="M0,0 L-18,0 A18,18 0 0,1 0,-18 Z" fill="#38bdf8" />
    <path d="M0,0 L0,-18 A18,18 0 0,1 18,0 Z" fill="#7dd3fc" />
    <circle cx="0" cy="0" r="6" fill="white" />
  </g>
  
  <!-- Dashboard Additional Elements -->
  <g transform="translate(110, 130)">
    <!-- Horizontal Status Bars -->
    <rect x="-40" y="0" width="80" height="8" rx="4" ry="4" fill="#f1f5f9" />
    <rect x="-40" y="0" width="60" height="8" rx="4" ry="4" fill="#38bdf8" />
    
    <rect x="-40" y="12" width="80" height="8" rx="4" ry="4" fill="#f1f5f9" />
    <rect x="-40" y="12" width="45" height="8" rx="4" ry="4" fill="#38bdf8" />
  </g>
  
  <!-- Real-time Indicator -->
  <g transform="translate(60, 155)">
    <circle cx="0" cy="0" r="6" fill="#22c55e" />
    <circle cx="0" cy="0" r="10" fill="none" stroke="#22c55e" stroke-width="1.5" stroke-dasharray="2 2" />
    <text x="15" y="4" font-family="Arial, sans-serif" font-size="9" fill="#475569">Real-time</text>
  </g>
  
  <!-- Content Approval Checkmark -->
  <g transform="translate(150, 155)">
    <circle cx="0" cy="0" r="8" fill="#f0fdf4" stroke="#22c55e" stroke-width="1.5" />
    <path d="M-3,0 L-1,3 L4,-3" fill="none" stroke="#22c55e" stroke-width="2" stroke-linecap="round" stroke-linejoin="round" />
    <text x="-30" y="4" font-family="Arial, sans-serif" font-size="9" fill="#475569">Approval Status</text>
  </g>
  
  <!-- ROI Indicator -->
  <g transform="translate(110, 175)">
    <path d="M-10,0 L0,-10 L10,0 L0,10 Z" fill="#bae6fd" stroke="#0284c7" stroke-width="1.5" />
    <text x="0" y="3" text-anchor="middle" font-family="Arial, sans-serif" font-size="11" font-weight="bold" fill="#0284c7">ROI</text>
  </g>
  
  <!-- Data Visualization Elements -->
  <g transform="translate(110, 45)">
    <!-- Scattered Data Points to represent visualization -->
    <circle cx="-40" cy="-15" r="1.5" fill="#0ea5e9" />
    <circle cx="-30" cy="-12" r="1.5" fill="#0ea5e9" />
    <circle cx="-25" cy="-18" r="1.5" fill="#0ea5e9" />
    <circle cx="-15" cy="-10" r="1.5" fill="#0ea5e9" />
    <circle cx="0" cy="-16" r="1.5" fill="#0ea5e9" />
    <circle cx="15" cy="-12" r="1.5" fill="#0ea5e9" />
    <circle cx="25" cy="-8" r="1.5" fill="#0ea5e9" />
    <circle cx="35" cy="-18" r="1.5" fill="#0ea5e9" />
    <circle cx="45" cy="-14" r="1.5" fill="#0ea5e9" />
  </g>
</svg>