<svg xmlns="http://www.w3.org/2000/svg" viewBox="0 0 200 200">
  <!-- Background Circle -->
  <circle cx="100" cy="100" r="80" fill="#f0fdfa" />
  
  <!-- Sales Funnel -->
  <g transform="translate(100, 105)">
    <!-- Funnel Shape -->
    <path d="M-45,-45 L45,-45 L35,-15 L25,15 L15,35 L5,45 L-5,45 L-15,35 L-25,15 L-35,-15 Z" fill="white" stroke="#0f766e" stroke-width="2.5" />
    
    <!-- Funnel Sections -->
    <path d="M-45,-45 L45,-45 L35,-15 L-35,-15 Z" fill="#99f6e4" stroke="#0f766e" stroke-width="1.5" />
    <path d="M-35,-15 L35,-15 L25,15 L-25,15 Z" fill="#5eead4" stroke="#0f766e" stroke-width="1.5" />
    <path d="M-25,15 L25,15 L15,35 L-15,35 Z" fill="#2dd4bf" stroke="#0f766e" stroke-width="1.5" />
    <path d="M-15,35 L15,35 L5,45 L-5,45 Z" fill="#14b8a6" stroke="#0f766e" stroke-width="1.5" />
  </g>
  
  <!-- User Icons at Funnel Top (Influencer Audience) -->
  <g transform="translate(70, 45)">
    <!-- User Group -->
    <circle cx="0" cy="0" r="7" fill="#0f766e" />
    <path d="M-7,10 C-7,16 7,16 7,10" fill="#0f766e" />
    <circle cx="-12" cy="5" r="5" fill="#0f766e" opacity="0.7" />
    <circle cx="12" cy="5" r="5" fill="#0f766e" opacity="0.7" />
  </g>
  
  <g transform="translate(100, 40)">
    <!-- User Group -->
    <circle cx="0" cy="0" r="7" fill="#0f766e" />
    <path d="M-7,10 C-7,16 7,16 7,10" fill="#0f766e" />
    <circle cx="-12" cy="5" r="5" fill="#0f766e" opacity="0.7" />
    <circle cx="12" cy="5" r="5" fill="#0f766e" opacity="0.7" />
  </g>
  
  <g transform="translate(130, 45)">
    <!-- User Group -->
    <circle cx="0" cy="0" r="7" fill="#0f766e" />
    <path d="M-7,10 C-7,16 7,16 7,10" fill="#0f766e" />
    <circle cx="-12" cy="5" r="5" fill="#0f766e" opacity="0.7" />
    <circle cx="12" cy="5" r="5" fill="#0f766e" opacity="0.7" />
  </g>
  
  <!-- Conversion Elements -->
  <g transform="translate(100, 110)">
    <!-- Conversion Arrows -->
    <path d="M0,-40 L0,-25 M-5,-30 L0,-25 L5,-30" fill="none" stroke="#0f766e" stroke-width="2.5" stroke-linecap="round" stroke-linejoin="round" />
    <path d="M-25,-10 L-15,-10 M-20,-15 L-15,-10 L-20,-5" fill="none" stroke="#0f766e" stroke-width="2" stroke-linecap="round" stroke-linejoin="round" />
    <path d="M25,-10 L15,-10 M20,-15 L15,-10 L20,-5" fill="none" stroke="#0f766e" stroke-width="2" stroke-linecap="round" stroke-linejoin="round" />
    <path d="M0,10 L0,25 M-5,20 L0,25 L5,20" fill="none" stroke="#0f766e" stroke-width="2.5" stroke-linecap="round" stroke-linejoin="round" />
  </g>
  
  <!-- Shopping Cart (Conversion) -->
  <g transform="translate(65, 150)">
    <circle cx="-8" cy="8" r="3" fill="#0d9488" />
    <circle cx="2" cy="8" r="3" fill="#0d9488" />
    <path d="M-12,0 L5,0 L8,5 L-10,5 Z" fill="#0d9488" />
    <path d="M-10,5 L-8,8 L6,8 L8,5" fill="none" stroke="#0d9488" stroke-width="1.5" />
  </g>
  
  <!-- Shopping Bag (Conversion) -->
  <g transform="translate(90, 150)">
    <path d="M-7,-5 L7,-5 L5,10 L-5,10 Z" fill="#0d9488" />
    <path d="M-4,-5 L-4,-8 C-4,-12 4,-12 4,-8 L4,-5" fill="none" stroke="#0d9488" stroke-width="1.5" />
  </g>
  
  <!-- Dollar Sign (Sales) -->
  <g transform="translate(115, 150)">
    <circle cx="0" cy="0" r="10" fill="#ccfbf1" stroke="#0d9488" stroke-width="1.5" />
    <path d="M0,-6 L0,6 M-4,-4 C-4,-8 4,-8 4,-4 C4,0 -4,0 -4,4 C-4,8 4,8 4,4" fill="none" stroke="#0d9488" stroke-width="1.5" stroke-linecap="round" />
  </g>
  
  <!-- Growth Chart (Measurable Results) -->
  <g transform="translate(140, 150)">
    <rect x="-10" y="-10" width="20" height="20" rx="2" ry="2" fill="#ccfbf1" stroke="#0d9488" stroke-width="1.5" />
    <path d="M-7,5 L-2,0 L3,5 L7,-5" fill="none" stroke="#0d9488" stroke-width="1.5" stroke-linecap="round" stroke-linejoin="round" />
  </g>
  
  <!-- Loyal Customer Crown/Trophy -->
  <g transform="translate(100, 170)">
    <path d="M-15,0 L15,0 L10,10 L-10,10 Z" fill="#14b8a6" />
    <path d="M-8,0 L-12,-8 L-4,-8 L0,-15 L4,-8 L12,-8 L8,0" fill="#14b8a6" stroke="#0f766e" stroke-width="1.5" />
    <circle cx="0" cy="-8" r="2" fill="#ccfbf1" />
  </g>
</svg>