<svg xmlns="http://www.w3.org/2000/svg" viewBox="0 0 200 200">
  <!-- Background Circle -->
  <circle cx="100" cy="100" r="80" fill="#eff6ff" />
  
  <!-- Clock Element (Time Saving) -->
  <g transform="translate(75, 90)">
    <circle cx="0" cy="0" r="35" fill="white" stroke="#2563eb" stroke-width="2.5" />
    <circle cx="0" cy="0" r="3" fill="#2563eb" />
    <!-- Clock Hands -->
    <line x1="0" y1="0" x2="0" y2="-20" stroke="#2563eb" stroke-width="2.5" stroke-linecap="round" />
    <line x1="0" y1="0" x2="15" y2="10" stroke="#2563eb" stroke-width="2.5" stroke-linecap="round" />
    <!-- Clock Markers -->
    <line x1="0" y1="-30" x2="0" y2="-25" stroke="#2563eb" stroke-width="2" stroke-linecap="round" />
    <line x1="30" y1="0" x2="25" y2="0" stroke="#2563eb" stroke-width="2" stroke-linecap="round" />
    <line x1="0" y1="30" x2="0" y2="25" stroke="#2563eb" stroke-width="2" stroke-linecap="round" />
    <line x1="-30" y1="0" x2="-25" y2="0" stroke="#2563eb" stroke-width="2" stroke-linecap="round" />
  </g>
  
  <!-- Fast Forward Symbol -->
  <g transform="translate(75, 32)">
    <path d="M-10,0 L-20,10 L-20,-10 Z" fill="#3b82f6" />
    <path d="M5,0 L-5,10 L-5,-10 Z" fill="#3b82f6" />
    <path d="M10,0 L10,10 L10,-10 Z M15,0 L15,10 L15,-10 Z" fill="#3b82f6" stroke="#3b82f6" stroke-width="2" />
  </g>
  
  <!-- Documents/Paperwork (Being Handled) -->
  <g transform="translate(130, 95)">
    <!-- Stack of Papers -->
    <rect x="-25" y="-30" width="40" height="50" rx="3" ry="3" fill="white" stroke="#64748b" stroke-width="1.5" transform="rotate(5)" />
    <rect x="-22" y="-33" width="40" height="50" rx="3" ry="3" fill="white" stroke="#64748b" stroke-width="1.5" transform="rotate(10)" />
    
    <!-- Contract Lines -->
    <rect x="-15" y="-25" width="25" height="3" rx="1" ry="1" fill="#cbd5e1" transform="rotate(10)" />
    <rect x="-15" y="-18" width="20" height="3" rx="1" ry="1" fill="#cbd5e1" transform="rotate(10)" />
    <rect x="-15" y="-11" width="27" height="3" rx="1" ry="1" fill="#cbd5e1" transform="rotate(10)" />
    
    <!-- Checkmark on Document -->
    <path d="M-8,5 L-3,10 L7,-5" fill="none" stroke="#16a34a" stroke-width="3" stroke-linecap="round" stroke-linejoin="round" transform="rotate(10)" />
  </g>
  
  <!-- Content Creation Symbol -->
  <g transform="translate(40, 110)">
    <!-- Camera/Video Icon -->
    <rect x="-15" y="-12" width="30" height="24" rx="3" ry="3" fill="#bfdbfe" stroke="#2563eb" stroke-width="1.5" />
    <circle cx="0" cy="0" r="7" fill="#3b82f6" />
    <circle cx="0" cy="0" r="3" fill="#eff6ff" />
    <rect x="15" y="-5" width="8" height="10" rx="1" ry="1" fill="#3b82f6" />
  </g>
  
  <!-- Person (Creator) Silhouette -->
  <g transform="translate(40, 75)">
    <circle cx="0" cy="0" r="10" fill="#93c5fd" />
    <path d="M-5,8 C-5,20 5,20 5,8" fill="none" stroke="#2563eb" stroke-width="2" />
  </g>
  
  <!-- Arrow from Paperwork to Clock -->
  <path d="M105,95 C 125,85 120,70 110,65" fill="none" stroke="#2563eb" stroke-width="2" stroke-dasharray="4 2" />
  
  <!-- Handshake (Negotiations) -->
  <g transform="translate(125, 145) scale(0.7)">
    <path d="M-25,0 C-20,-5 -15,-5 -10,0 C-5,-5 0,-5 5,0 C10,-5 15,-5 20,0 L25,5 L20,10 L5,5 L-10,10 L-25,5 Z" fill="none" stroke="#64748b" stroke-width="3" stroke-linejoin="round" />
  </g>
</svg>