<svg version="1.1" id="Layer_1" xmlns="http://www.w3.org/2000/svg" xmlns:xlink="http://www.w3.org/1999/xlink" x="0px" y="0px"
	 width="100%" viewBox="0 0 500 500" enable-background="new 0 0 500 500" xml:space="preserve">
<path fill="#000000" opacity="1.000000" stroke="none" 
	d="
M332.000000,501.000000 
	C221.333359,501.000000 111.166718,501.000000 1.000059,501.000000 
	C1.000039,334.333405 1.000039,167.666794 1.000020,1.000149 
	C167.666565,1.000099 334.333130,1.000099 500.999756,1.000050 
	C500.999847,167.666519 500.999847,334.333038 500.999939,500.999786 
	C444.833344,501.000000 388.666656,501.000000 332.000000,501.000000 
M401.999878,224.999573 
	C401.999878,224.999573 402.024231,224.966293 401.900604,224.466156 
	C401.624573,224.271927 401.348541,224.077698 400.771179,223.281586 
	C398.530823,220.820251 396.290466,218.358917 393.781189,215.305450 
	C392.434235,213.887863 391.087280,212.470261 390.052704,210.360840 
	C391.396698,206.254745 392.740692,202.148636 394.788788,197.605377 
	C394.839691,187.773132 394.890564,177.940872 395.033386,167.307159 
	C394.351135,164.984451 393.915710,162.551468 392.937195,160.361145 
	C390.630951,155.198700 388.065826,150.151901 385.900940,144.143356 
	C385.929199,136.727753 386.024292,129.311401 385.941071,121.897057 
	C385.918854,119.919891 385.350739,117.948853 384.647552,115.183540 
	C373.556641,115.183540 362.465698,115.183540 350.591583,115.183540 
	C351.863922,116.231972 352.457001,116.720695 353.005585,118.066734 
	C353.021027,120.656906 353.036469,123.247078 352.500671,125.976631 
	C352.301422,126.278755 352.102142,126.580879 351.147522,127.340500 
	C351.147583,152.520264 351.147644,177.700043 351.021362,203.827744 
	C351.019226,210.160492 351.017120,216.493240 350.530518,223.129379 
	C350.327820,223.445114 350.125122,223.760834 349.189819,224.003738 
	C348.072510,224.293457 346.955200,224.583160 345.260742,224.932220 
	C344.843658,225.270020 344.426544,225.607819 343.960083,225.949844 
	C343.960083,225.949844 343.941803,225.995926 343.164185,225.992767 
	C339.448273,227.063400 335.732330,228.134033 331.320312,229.091309 
	C330.230042,229.435013 329.139771,229.778717 327.153442,230.052124 
	C324.493042,230.458344 323.882263,229.223221 323.940552,226.710678 
	C324.106384,219.564178 324.000763,212.411346 324.001038,205.261017 
	C324.002075,179.320267 324.035187,153.379379 323.919098,127.439171 
	C323.912476,125.954521 322.686218,124.475334 321.886108,122.509979 
	C321.594666,122.402626 321.303253,122.295280 320.166565,122.042809 
	C318.452057,122.079323 316.737518,122.115837 314.275818,122.048592 
	C311.029419,123.445839 307.453217,124.372879 304.620392,126.359764 
	C301.106079,128.824646 296.610809,130.817688 295.285065,136.221405 
	C295.186523,141.004852 294.943085,145.791168 295.037781,150.570786 
	C295.106567,154.043777 295.622467,157.507904 296.004578,161.909134 
	C296.084167,166.625366 296.163788,171.341599 296.068878,176.568466 
	C296.021057,176.741867 295.973206,176.915268 295.147827,177.452759 
	C294.697449,196.226776 294.247070,215.000793 293.795258,233.835541 
	C290.035797,234.313156 286.520538,234.759720 282.179077,235.194672 
	C275.036469,236.141861 267.893829,237.089050 259.536224,238.197372 
	C267.694275,243.968246 276.305389,242.535614 284.710083,244.913467 
	C286.818176,244.975586 288.926239,245.037704 291.412933,245.839706 
	C292.543152,245.939499 293.673370,246.039291 295.001892,246.156570 
	C295.001892,247.959167 295.002014,249.613831 295.001892,251.268494 
	C295.000244,271.888000 294.963257,292.507721 295.084686,313.126495 
	C295.091949,314.361725 296.365631,315.589447 297.918304,317.006165 
	C300.288696,316.965790 302.659119,316.925385 305.933868,316.998901 
	C308.377258,317.017242 310.820648,317.036530 313.264038,317.053711 
	C316.476562,317.076355 319.689117,317.097321 323.732239,316.750397 
	C323.780060,294.870697 323.827850,272.990997 323.919281,250.285004 
	C324.621185,248.787003 325.323120,247.289017 326.863464,245.910675 
	C329.581268,245.535919 332.299042,245.161163 335.774414,244.933151 
	C340.801147,243.948242 345.827881,242.963348 350.971832,242.911209 
	C350.974945,265.323303 350.957031,287.735443 351.023773,310.147339 
	C351.028717,311.814484 351.640808,313.479767 352.099213,315.654419 
	C352.408783,315.782837 352.718353,315.911285 353.527496,316.724457 
	C363.033417,316.435852 372.539307,316.147217 382.628845,316.118347 
	C383.434845,316.101379 384.240814,316.084412 385.837891,315.671356 
	C385.898224,297.898956 385.901520,280.125854 386.107056,262.355133 
	C386.127594,260.578339 387.376953,258.815765 388.909760,257.014648 
	C391.291565,256.713745 393.673401,256.412811 396.723938,255.957443 
	C398.117828,255.267303 399.511749,254.577148 401.615967,253.910034 
	C403.405975,251.446930 405.806641,249.219788 406.867188,246.474869 
	C409.635895,239.309097 407.140686,232.850037 402.969177,226.428223 
	C402.969177,226.428223 402.824036,226.027679 402.871033,225.507431 
	C402.590027,225.329514 402.308990,225.151596 401.999878,224.999573 
M244.509308,182.126633 
	C244.187378,182.327209 244.090302,182.606064 244.054016,183.403656 
	C244.054016,183.403656 243.907562,183.850266 243.400253,184.015106 
	C243.249969,184.320618 243.099670,184.626114 242.880798,184.890106 
	C242.880798,184.890106 242.802612,184.907928 242.237411,185.163254 
	C240.467484,189.419571 238.697540,193.675888 236.338028,198.333328 
	C234.862015,201.881729 233.386002,205.430130 231.164093,208.967880 
	C227.759384,207.719833 224.354660,206.471802 220.502335,205.090317 
	C220.502335,205.090317 220.069565,204.914566 219.927063,204.403107 
	C219.617722,204.334702 219.308380,204.266312 218.360687,204.123260 
	C217.939148,204.051773 217.517609,203.980286 216.866959,203.321152 
	C216.266129,203.199799 215.665298,203.078461 215.020828,202.983093 
	C215.020828,202.983093 215.035980,202.934631 214.895950,202.445328 
	C214.577347,202.616806 214.258728,202.788269 213.519150,203.022400 
	C213.519150,203.022400 213.101669,202.939453 212.934769,202.425781 
	C212.618652,202.328659 212.302536,202.231537 211.178986,202.004593 
	C204.426437,200.744125 197.673874,199.483658 190.107285,198.022629 
	C185.747955,197.693954 181.388611,197.365265 176.552643,196.318695 
	C165.722351,196.863785 154.858429,197.043533 144.069366,198.036575 
	C126.310555,199.671097 110.324615,205.765259 97.743141,218.931091 
	C95.320610,221.466125 93.848289,224.909195 91.235619,227.951599 
	C90.905159,228.636505 90.574699,229.321426 90.068123,230.452072 
	C90.068123,230.452072 89.902863,230.901962 89.174614,230.925110 
	C85.256569,237.704636 83.562958,245.117798 82.245804,253.162964 
	C81.906113,253.527313 81.207115,253.998306 81.278992,254.240494 
	C83.383064,261.329620 80.348969,268.883881 83.308647,275.904022 
	C84.989204,279.890167 86.434303,283.975616 87.895973,288.614716 
	C90.587173,300.431824 98.050995,308.737122 107.518967,315.640411 
	C102.104263,305.963409 94.601738,297.442444 92.924362,285.191223 
	C92.867485,284.220886 92.805420,283.250824 92.754585,282.280182 
	C92.461517,276.684814 91.146927,270.902618 92.124634,265.538452 
	C93.521919,257.872375 96.597321,250.512146 99.606598,242.772995 
	C102.433250,238.864517 105.259903,234.956039 108.690605,230.754059 
	C111.139053,228.859619 113.587494,226.965164 116.765450,225.009613 
	C124.752686,221.925659 132.637344,218.531006 140.757660,215.850098 
	C148.054214,213.441116 155.609604,211.816040 163.710510,209.936447 
	C164.146622,209.871277 164.582733,209.806122 165.856674,209.855942 
	C170.260803,208.942535 174.664932,208.029114 179.467072,207.872208 
	C189.597565,207.874374 199.728058,207.876541 210.687912,208.013031 
	C217.098068,209.688446 223.508240,211.363861 229.658386,213.706635 
	C228.753906,216.123749 227.849426,218.540878 226.346161,221.335648 
	C221.693146,231.598663 216.930466,241.814392 212.469559,252.160233 
	C211.442444,254.542389 211.450485,257.370880 210.383713,260.287567 
	C210.033264,261.531128 209.682831,262.774689 209.148392,264.531708 
	C209.103333,264.707825 209.058289,264.883972 208.400299,265.285126 
	C208.010223,266.191284 207.620132,267.097443 207.125656,268.506012 
	C207.075439,268.669495 207.025208,268.833008 206.370483,269.264374 
	C205.728714,269.958252 204.797897,270.543365 204.489578,271.362671 
	C201.156754,280.219177 197.921860,289.112488 194.481842,298.614380 
	C188.867065,307.242188 183.252274,315.869965 177.320389,324.985046 
	C182.582550,324.602997 187.045502,324.146088 190.674530,319.698029 
	C193.446381,317.130341 196.218231,314.562653 199.565140,311.738159 
	C200.364487,310.775604 201.163834,309.813080 202.591232,308.656738 
	C212.259521,300.460693 219.153641,290.154846 225.066986,279.062775 
	C225.066986,279.062775 225.079498,279.025421 225.658020,278.692932 
	C226.770584,276.807434 227.883133,274.921967 229.027344,273.023407 
	C229.027344,273.023407 229.037628,272.990723 229.674774,272.725281 
	C231.049973,270.152496 232.425171,267.579742 234.127686,264.376526 
	C237.606903,257.611725 241.266830,250.931671 244.494354,244.048828 
	C246.294464,240.210007 247.375549,236.034042 249.096161,231.456680 
	C251.042892,228.335022 252.989639,225.213364 255.338699,222.678253 
	C259.585052,224.541870 263.831421,226.405487 268.077759,228.269104 
	C267.573242,226.406158 266.531250,225.544907 265.414276,224.795303 
	C257.143402,219.244720 257.138702,219.251709 259.672424,209.673370 
	C262.819580,201.487183 265.966766,193.300980 269.710144,184.736557 
	C270.167267,183.188034 270.624390,181.639511 271.718872,179.745895 
	C275.112579,171.499176 278.506256,163.252457 282.037109,154.249557 
	C283.643524,150.504089 285.249939,146.758636 287.114532,142.350235 
	C289.019379,139.230408 290.924194,136.110580 292.968719,132.294052 
	C296.206482,128.351196 299.444244,124.408340 302.682007,120.465485 
	C302.363373,120.103752 302.044708,119.742027 301.726044,119.380295 
	C290.091248,123.231140 280.887573,130.653534 272.344482,140.223221 
	C267.047150,147.193542 261.465881,153.970825 256.551056,161.201141 
	C253.200211,166.130676 250.780914,171.693436 247.984802,176.995926 
	C247.984802,176.995926 247.979736,176.952087 247.355774,176.985535 
	C246.948853,177.319443 246.541916,177.653336 246.013855,178.633881 
	C245.991058,179.072067 245.968262,179.510269 245.990860,179.998352 
	C245.990860,179.998352 245.932953,179.962997 245.382248,180.222763 
	C245.236465,180.802856 245.090683,181.382935 244.997345,182.001938 
	C244.997345,182.001938 244.954620,181.953369 244.509308,182.126633 
M154.991470,292.004822 
	C154.991470,292.004822 154.914719,292.001221 155.008804,292.883514 
	C155.074142,295.261230 155.139481,297.638916 155.083679,300.830658 
	C154.107254,304.423279 153.000595,307.986786 152.189529,311.616364 
	C151.306244,315.569031 150.401215,319.555939 150.034195,323.576202 
	C149.394409,330.584290 156.694931,334.521118 165.415207,331.657013 
	C167.091187,331.106598 174.536423,330.802979 167.211868,326.372559 
	C166.537292,325.964539 166.031586,324.614594 166.097244,323.751465 
	C166.577133,317.444305 167.223175,311.149811 167.937210,304.113892 
	C168.304398,302.442627 168.671585,300.771393 169.752914,298.692688 
	C170.153732,296.482880 171.217026,294.132874 170.786652,292.098938 
	C170.256195,289.591980 169.043854,286.087555 167.135574,285.237183 
	C162.249588,283.059845 156.890350,283.304291 151.155548,286.057312 
	C148.494492,287.203247 145.833435,288.349152 142.120605,289.947968 
	C147.239349,290.437714 150.609924,290.760193 153.988083,291.011719 
	C153.988083,291.011719 153.916840,291.015778 154.067322,291.544434 
	C154.373322,291.723419 154.679321,291.902405 154.991470,292.004822 
M392.774933,323.283386 
	C378.100647,321.875427 346.832367,322.696411 344.298859,325.737427 
	C347.291016,325.737427 350.283203,325.737427 353.957855,325.984528 
	C362.546967,326.257080 371.136047,326.529663 380.677277,326.855194 
	C384.727264,325.964539 388.777283,325.073883 392.774933,323.283386 
M352.889832,104.927406 
	C349.883118,105.424103 346.876373,105.920799 343.869659,106.417488 
	C343.916687,106.929512 343.963745,107.441528 344.010803,107.953552 
	C345.123260,107.953552 346.235718,107.953552 348.366852,107.982086 
	C363.831207,107.982086 379.295593,107.982086 394.759949,107.982086 
	C394.784027,107.285294 394.808075,106.588493 394.832123,105.891701 
	C390.755249,105.254951 386.692169,104.204590 382.598572,104.067780 
	C374.142456,103.785172 365.669586,103.948196 357.204865,104.040863 
	C356.032990,104.053673 354.868134,104.708275 352.889832,104.927406 
M163.081207,265.379700 
	C162.563293,266.546234 161.968903,267.685547 161.541763,268.884430 
	C160.245590,272.522644 162.973694,274.544769 165.347153,275.550140 
	C168.129929,276.728912 171.537460,276.885284 173.759293,273.623352 
	C175.663055,270.828400 174.813568,268.520874 172.807663,266.190552 
	C170.099579,263.044464 166.897171,264.645569 163.081207,265.379700 
z"/>
<path fill="#501CB4" opacity="1.000000" stroke="none" 
	d="
M116.035934,225.070709 
	C113.587494,226.965164 111.139053,228.859619 108.033661,230.923126 
	C103.619194,233.567398 99.861679,236.042603 97.430038,237.644409 
	C93.825844,237.327881 91.604340,237.132782 89.137276,236.916122 
	C89.374039,235.056229 89.638451,232.979095 89.902863,230.901962 
	C89.902863,230.901962 90.068123,230.452072 90.453888,230.165710 
	C91.205643,229.230698 91.571625,228.582016 91.937607,227.933350 
	C93.848289,224.909195 95.320610,221.466125 97.743141,218.931091 
	C110.324615,205.765259 126.310555,199.671097 144.069366,198.036575 
	C154.858429,197.043533 165.722351,196.863785 176.709763,197.042023 
	C176.680588,198.024353 176.551910,198.403809 176.299484,198.524506 
	C171.480270,200.828598 166.614105,203.038727 161.857056,205.463287 
	C161.268127,205.763428 161.243439,207.170593 160.613831,208.214630 
	C157.719254,208.919205 155.172287,209.493835 152.616150,210.024246 
	C147.989319,210.984314 143.267181,211.613724 138.751755,212.946594 
	C134.053146,214.333527 129.362411,216.023590 125.026276,218.271683 
	C121.738304,219.976395 119.012108,222.764633 116.035934,225.070709 
z"/>
<path fill="#A614D4" opacity="1.000000" stroke="none" 
	d="
M322.901642,317.119019 
	C319.689117,317.097321 316.476562,317.076355 313.264038,317.053711 
	C310.820648,317.036530 308.377258,317.017242 305.369080,316.588196 
	C302.423981,314.221802 297.352142,315.909790 297.367737,310.718506 
	C297.399017,300.314606 297.452209,289.910736 297.498901,278.906036 
	C301.714233,280.515045 304.421021,281.548218 307.315155,282.652924 
	C311.173828,279.010956 315.039581,275.274750 319.034119,271.681671 
	C319.671173,271.108643 320.885956,271.177917 321.911499,271.407013 
	C322.293427,286.948853 322.597534,302.033936 322.901642,317.119019 
z"/>
<path fill="#4B148F" opacity="1.000000" stroke="none" 
	d="
M254.936371,222.091705 
	C252.989639,225.213364 251.042892,228.335022 248.614365,231.803345 
	C244.819580,236.828232 241.506592,241.506454 238.193588,246.184677 
	C237.917877,245.791412 237.642181,245.398163 237.366470,245.004898 
	C235.578094,245.004898 233.789734,245.004898 231.614532,245.051956 
	C225.262192,246.798050 220.590668,249.743332 218.182953,256.012512 
	C216.322845,260.855804 213.499893,265.340637 210.947586,269.896667 
	C210.470551,270.748230 209.248184,271.182281 208.369766,271.809021 
	C207.904846,270.871521 207.439911,269.933990 206.974991,268.996490 
	C207.025208,268.833008 207.075439,268.669495 207.495239,268.184631 
	C208.247620,266.928864 208.630417,265.994507 209.013229,265.060120 
	C209.058289,264.883972 209.103333,264.707825 209.554504,264.215820 
	C210.301132,262.597931 210.641647,261.295929 210.982147,259.993958 
	C211.450485,257.370880 211.442444,254.542389 212.469559,252.160233 
	C216.930466,241.814392 221.693146,231.598663 227.041016,221.162018 
	C229.449875,222.323898 231.163910,223.659424 232.741180,224.888397 
	C235.786301,224.888397 239.071915,224.884888 242.357513,224.890106 
	C243.678665,224.892212 245.072464,225.177811 246.297485,224.840881 
	C247.244370,224.580475 248.444458,223.677994 248.676865,222.827347 
	C248.903671,221.997147 248.326096,220.322159 247.619751,219.961258 
	C242.124741,217.153839 236.513229,214.574463 230.960999,211.612335 
	C231.292847,210.526230 231.601410,209.752380 231.909988,208.978531 
	C233.386002,205.430130 234.862015,201.881729 236.667786,198.510406 
	C237.650955,199.733673 238.104843,201.007004 238.992386,201.786697 
	C242.797668,205.129562 246.711578,208.350281 250.626938,211.565536 
	C252.087158,212.764633 253.659409,213.827316 255.143463,215.400024 
	C255.049683,217.929153 254.993027,220.010422 254.936371,222.091705 
z"/>
<path fill="#E94A46" opacity="1.000000" stroke="none" 
	d="
M382.045227,315.858582 
	C372.539307,316.147217 363.033417,316.435852 353.266113,316.095673 
	C352.929535,315.291321 352.854340,315.115723 352.774597,314.488617 
	C352.651184,308.030182 352.532257,302.023254 352.607300,295.662964 
	C352.935364,288.163513 353.069458,281.017456 353.420593,274.137939 
	C353.792877,274.876312 353.818268,275.465485 354.122711,275.802643 
	C359.693420,281.972382 365.234863,288.172089 370.993286,294.162903 
	C371.557251,294.749664 373.697540,294.377869 374.755157,293.804108 
	C376.374054,292.925751 377.532898,291.180969 379.164978,290.349548 
	C381.949280,288.931122 383.160217,287.225769 383.099213,283.843170 
	C382.962219,276.244263 383.463776,268.633820 383.782623,261.487305 
	C383.887390,265.427887 383.873779,268.910126 383.950714,272.390381 
	C384.132996,280.638489 384.358307,288.885651 384.588806,297.589600 
	C384.635925,302.964050 384.660431,307.882080 384.398926,312.891510 
	C383.423645,313.941437 382.734436,314.899994 382.045227,315.858582 
z"/>
<path fill="#B611B5" opacity="1.000000" stroke="none" 
	d="
M295.925354,177.088669 
	C295.973206,176.915268 296.021057,176.741867 296.401733,175.993225 
	C296.864380,172.666245 296.994202,169.914490 297.450317,167.067291 
	C298.856171,165.980057 299.935730,164.988266 301.223938,164.229019 
	C301.941376,163.305603 302.450104,162.149628 302.965210,160.657059 
	C302.981750,159.871704 302.991852,159.422958 303.359497,158.945343 
	C305.226776,157.760651 307.189850,156.899017 308.164948,155.396286 
	C311.730774,149.901047 314.921631,144.163757 318.380554,138.596451 
	C318.864594,137.817307 320.055664,137.477448 321.275299,136.710464 
	C321.855255,139.196075 322.289337,141.056488 322.806549,143.383957 
	C322.852417,152.522369 322.815125,161.193726 322.538940,169.545853 
	C321.027069,162.328751 323.588043,155.009399 319.855713,148.024902 
	C316.425079,152.624161 312.210510,157.191406 311.428680,162.285492 
	C309.715302,173.448685 310.515015,184.819748 316.193481,195.075592 
	C317.353821,197.171280 320.030518,198.427383 322.017212,200.531799 
	C322.026245,210.160049 322.026245,219.326981 322.026245,228.493927 
	C321.442566,228.594574 320.858917,228.695221 320.275238,228.795853 
	C315.403442,216.821732 310.531616,204.847595 305.535461,192.567780 
	C303.444916,194.624939 302.229675,195.820801 300.627014,197.009460 
	C299.207886,196.970627 298.176178,196.938995 297.121552,196.449921 
	C296.769562,189.968643 296.440460,183.944824 296.030090,177.720673 
	C295.948822,177.520370 295.925354,177.088669 295.925354,177.088669 
z"/>
<path fill="#E212B0" opacity="1.000000" stroke="none" 
	d="
M394.084717,198.042542 
	C392.740692,202.148636 391.396698,206.254745 389.606079,210.848267 
	C387.414612,214.423889 385.669769,217.512085 383.655060,220.710205 
	C380.208588,223.826797 377.031982,226.833420 373.597961,229.864761 
	C373.000671,229.944824 372.660828,230.000168 372.035065,230.116608 
	C371.498962,230.461197 371.248749,230.744690 370.998596,231.014435 
	C370.998688,231.000702 371.027588,231.010635 370.739807,230.891602 
	C364.171082,230.678741 368.182434,227.445862 368.040985,225.477783 
	C367.022919,222.307709 366.004822,219.137619 364.991211,215.984161 
	C364.995667,216.000793 364.965271,215.998322 365.200409,215.898132 
	C365.623505,215.521118 365.811462,215.244324 366.002502,214.986755 
	C366.005554,215.005966 365.967224,214.999268 366.201660,214.899689 
	C366.624298,214.524734 366.812469,214.249374 367.002777,213.989517 
	C367.004913,214.005020 366.973938,214.000092 367.197021,213.912781 
	C367.702057,213.649261 367.898590,213.404449 368.228821,212.835236 
	C375.967865,204.584473 382.935364,196.237122 385.923340,184.885010 
	C386.366425,182.296753 386.735229,180.127075 387.484894,177.907166 
	C389.910889,177.561905 391.956024,177.266876 393.996887,177.440918 
	C393.676086,183.594406 393.301025,189.276718 393.097595,194.965179 
	C393.061371,195.977890 393.737518,197.016098 394.084717,198.042542 
z"/>
<path fill="#480F82" opacity="1.000000" stroke="none" 
	d="
M206.672729,269.130432 
	C207.439911,269.933990 207.904846,270.871521 208.369766,271.809021 
	C209.248184,271.182281 210.470551,270.748230 210.947586,269.896667 
	C213.499893,265.340637 216.322845,260.855804 218.182953,256.012512 
	C220.590668,249.743332 225.262192,246.798050 231.613647,245.438477 
	C231.140915,247.439865 230.264755,249.093018 229.426941,250.765366 
	C227.275330,255.060226 224.935760,259.276459 223.059540,263.689209 
	C221.339890,267.733673 221.914856,272.910492 216.688492,275.129211 
	C215.917618,275.456512 215.327209,277.558868 215.572815,278.628845 
	C215.989761,280.445404 217.138580,282.093994 218.155579,284.172333 
	C220.591660,282.385681 222.829437,280.744446 225.067200,279.103241 
	C219.153641,290.154846 212.259521,300.460693 202.291916,308.400909 
	C202.701416,306.886597 203.276016,305.526031 204.142105,304.387115 
	C208.013672,299.296051 212.057846,294.332733 215.796509,289.147888 
	C216.357056,288.370514 215.627274,286.662689 215.494385,285.385284 
	C214.234329,285.906616 212.487213,286.069672 211.795944,287.009430 
	C208.227371,291.860565 204.929276,296.910706 200.957489,302.741943 
	C199.756424,299.977722 199.016632,298.275146 198.281937,296.584320 
	C197.024460,297.074371 195.842331,297.535065 194.660187,297.995758 
	C197.921860,289.112488 201.156754,280.219177 204.489578,271.362671 
	C204.797897,270.543365 205.728714,269.958252 206.672729,269.130432 
z"/>
<path fill="#5E19A8" opacity="1.000000" stroke="none" 
	d="
M255.180603,214.952209 
	C253.659409,213.827316 252.087158,212.764633 250.626938,211.565536 
	C246.711578,208.350281 242.797668,205.129562 238.992386,201.786697 
	C238.104843,201.007004 237.650955,199.733673 236.962585,198.309845 
	C238.697540,193.675888 240.467484,189.419571 242.582428,185.403076 
	C243.188065,186.638107 243.448685,187.633316 243.396317,187.433365 
	C249.464645,185.212326 255.217331,183.106796 260.972961,181.380417 
	C259.575775,186.551498 258.175659,191.343430 256.775574,196.135376 
	C257.355377,196.505325 257.935181,196.875290 258.514984,197.245255 
	C260.725250,194.708939 262.933655,192.171051 265.146454,189.636948 
	C266.465424,188.126480 267.791199,186.621964 269.113922,185.114777 
	C265.966766,193.300980 262.819580,201.487183 259.025879,209.901566 
	C257.313080,211.737244 256.246857,213.344727 255.180603,214.952209 
z"/>
<path fill="#7C14BA" opacity="1.000000" stroke="none" 
	d="
M321.833679,270.950256 
	C320.885956,271.177917 319.671173,271.108643 319.034119,271.681671 
	C315.039581,275.274750 311.173828,279.010956 307.315155,282.652924 
	C304.421021,281.548218 301.714233,280.515045 297.498901,278.906036 
	C297.452209,289.910736 297.399017,300.314606 297.367737,310.718506 
	C297.352142,315.909790 302.423981,314.221802 304.916901,316.531250 
	C302.659119,316.925385 300.288696,316.965790 297.340210,316.533691 
	C296.570740,300.709442 296.379395,285.357666 296.439026,269.852417 
	C296.783386,268.788544 296.876740,267.878082 296.976013,266.645081 
	C296.998199,265.893097 297.014435,265.463684 297.452789,265.029114 
	C301.789520,263.914398 305.658722,262.588226 309.631378,261.755524 
	C313.694122,260.903931 317.858276,260.536194 322.001465,260.238647 
	C322.289459,260.994751 322.554077,261.468842 322.903625,262.353271 
	C322.603577,265.492523 322.218628,268.221405 321.833679,270.950256 
z"/>
<path fill="#4F50EC" opacity="1.000000" stroke="none" 
	d="
M292.829041,132.990753 
	C290.924194,136.110580 289.019379,139.230408 286.631531,142.701309 
	C282.320343,147.893448 274.356903,148.885391 273.570312,156.647705 
	C273.482666,157.512451 272.167480,158.310928 271.328217,159.031418 
	C267.490814,162.325851 262.963165,165.074066 259.939423,168.988617 
	C256.675323,173.214310 252.935806,175.796158 247.945114,176.973068 
	C250.780914,171.693436 253.200211,166.130676 256.551056,161.201141 
	C261.465881,153.970825 267.047150,147.193542 272.677612,140.445679 
	C273.697601,141.202789 274.634033,142.334610 275.028473,142.169739 
	C276.830231,141.416641 278.442352,140.226562 280.191772,139.328140 
	C284.383514,137.175430 288.614105,135.098358 292.829041,132.990753 
z"/>
<path fill="#E94A46" opacity="1.000000" stroke="none" 
	d="
M167.816772,304.851318 
	C167.223175,311.149811 166.577133,317.444305 166.097244,323.751465 
	C166.031586,324.614594 166.537292,325.964539 167.211868,326.372559 
	C174.536423,330.802979 167.091187,331.106598 165.415207,331.657013 
	C156.694931,334.521118 149.394409,330.584290 150.034195,323.576202 
	C150.401215,319.555939 151.306244,315.569031 152.189529,311.616364 
	C153.000595,307.986786 154.107254,304.423279 155.429886,300.234131 
	C155.943100,298.743591 156.110107,297.849579 156.553360,297.124939 
	C160.491989,299.813293 164.154388,302.332306 167.816772,304.851318 
z"/>
<path fill="#551184" opacity="1.000000" stroke="none" 
	d="
M225.067093,279.083008 
	C222.829437,280.744446 220.591660,282.385681 218.155579,284.172333 
	C217.138580,282.093994 215.989761,280.445404 215.572815,278.628845 
	C215.327209,277.558868 215.917618,275.456512 216.688492,275.129211 
	C221.914856,272.910492 221.339890,267.733673 223.059540,263.689209 
	C224.935760,259.276459 227.275330,255.060226 229.426941,250.765366 
	C230.264755,249.093018 231.140915,247.439865 232.000488,245.391418 
	C233.789734,245.004898 235.578094,245.004898 237.366470,245.004898 
	C237.642181,245.398163 237.917877,245.791412 238.193588,246.184677 
	C241.506592,241.506454 244.819580,236.828232 248.456619,232.079987 
	C247.375549,236.034042 246.294464,240.210007 244.494354,244.048828 
	C241.266830,250.931671 237.606903,257.611725 233.628693,264.743530 
	C231.765671,267.737244 230.401657,270.363983 229.037628,272.990723 
	C229.037628,272.990723 229.027344,273.023407 228.657257,273.060425 
	C227.217957,275.073425 226.148727,277.049408 225.079498,279.025421 
	C225.079498,279.025421 225.066986,279.062775 225.067093,279.083008 
z"/>
<path fill="#7C14BA" opacity="1.000000" stroke="none" 
	d="
M247.964966,176.984497 
	C252.935806,175.796158 256.675323,173.214310 259.939423,168.988617 
	C262.963165,165.074066 267.490814,162.325851 271.328217,159.031418 
	C272.167480,158.310928 273.482666,157.512451 273.570312,156.647705 
	C274.356903,148.885391 282.320343,147.893448 286.502441,143.032776 
	C285.249939,146.758636 283.643524,150.504089 281.638733,154.697891 
	C280.376404,155.882278 279.165924,156.447357 278.704712,157.382141 
	C275.745087,163.381027 272.814789,169.404114 270.218597,175.564133 
	C269.721954,176.742538 270.754486,178.565430 271.081543,180.090988 
	C270.624390,181.639511 270.167267,183.188034 269.412048,184.925659 
	C267.791199,186.621964 266.465424,188.126480 265.146454,189.636948 
	C262.933655,192.171051 260.725250,194.708939 258.514984,197.245255 
	C257.935181,196.875290 257.355377,196.505325 256.775574,196.135376 
	C258.175659,191.343430 259.575775,186.551498 260.986084,181.376190 
	C260.996307,180.992813 261.002197,180.970001 261.319672,180.935394 
	C262.078400,180.268478 262.519684,179.636139 263.169159,178.727234 
	C264.752716,175.997284 266.128082,173.543869 267.503448,171.090469 
	C266.856537,170.587265 266.209656,170.084061 265.562744,169.580856 
	C263.923920,170.918472 262.195435,172.161530 260.664246,173.612717 
	C257.088959,177.001266 253.142700,179.193710 248.011230,177.840302 
	C248.004990,177.346603 247.992355,177.149338 247.979736,176.952087 
	C247.979736,176.952087 247.984802,176.995926 247.964966,176.984497 
z"/>
<path fill="#551184" opacity="1.000000" stroke="none" 
	d="
M194.571014,298.305054 
	C195.842331,297.535065 197.024460,297.074371 198.281937,296.584320 
	C199.016632,298.275146 199.756424,299.977722 200.957489,302.741943 
	C204.929276,296.910706 208.227371,291.860565 211.795944,287.009430 
	C212.487213,286.069672 214.234329,285.906616 215.494385,285.385284 
	C215.627274,286.662689 216.357056,288.370514 215.796509,289.147888 
	C212.057846,294.332733 208.013672,299.296051 204.142105,304.387115 
	C203.276016,305.526031 202.701416,306.886597 201.977875,308.497803 
	C201.163834,309.813080 200.364487,310.775604 198.924988,311.903503 
	C195.605911,313.806854 192.860016,315.455292 190.308380,317.363495 
	C189.836105,317.716675 190.147964,319.118408 190.097916,320.036194 
	C187.045502,324.146088 182.582550,324.602997 177.320389,324.985046 
	C183.252274,315.869965 188.867065,307.242188 194.571014,298.305054 
z"/>
<path fill="#4B148F" opacity="1.000000" stroke="none" 
	d="
M291.034332,245.099823 
	C288.926239,245.037704 286.818176,244.975586 284.431152,244.485840 
	C290.529327,241.263596 290.711639,240.739410 287.351135,235.972290 
	C290.895477,234.943771 296.013885,237.360535 296.206299,231.017395 
	C296.656281,230.994781 296.836212,230.984467 297.008667,230.985855 
	C297.001221,230.997559 297.025299,230.984436 297.013184,231.401169 
	C296.728668,234.630478 298.402710,235.207245 300.700989,234.990662 
	C303.798309,234.698776 306.891296,234.360504 310.039764,234.422333 
	C309.938049,240.541931 311.231293,245.703720 315.936218,249.517487 
	C316.027710,249.591644 315.981018,249.836243 315.587799,250.061676 
	C309.151917,250.778931 303.127045,251.435822 297.112488,251.695404 
	C297.146729,249.119080 300.236603,246.234085 295.309814,245.138000 
	C293.626526,245.146667 292.330444,245.123245 291.034332,245.099823 
z"/>
<path fill="#5E19A8" opacity="1.000000" stroke="none" 
	d="
M89.538742,230.913544 
	C89.638451,232.979095 89.374039,235.056229 89.137276,236.916122 
	C91.604340,237.132782 93.825844,237.327881 97.430038,237.644409 
	C99.861679,236.042603 103.619194,233.567398 107.731636,231.069885 
	C105.259903,234.956039 102.433250,238.864517 98.930519,242.945343 
	C97.083328,244.577515 95.522934,245.871185 94.815430,247.528854 
	C92.838379,252.161072 91.214272,256.943939 89.429947,261.723389 
	C87.168129,261.251617 85.287949,260.859406 82.933701,260.368347 
	C82.933701,257.733093 82.933701,255.283630 82.933701,252.834152 
	C83.562958,245.117798 85.256569,237.704636 89.538742,230.913544 
z"/>
<path fill="#C5129E" opacity="1.000000" stroke="none" 
	d="
M364.986755,215.967545 
	C366.004822,219.137619 367.022919,222.307709 368.040985,225.477783 
	C368.182434,227.445862 364.171082,230.678741 370.593506,231.166077 
	C369.819061,232.368240 368.903107,233.176941 367.635193,234.025543 
	C362.551880,236.108765 357.820435,238.152084 353.054565,239.746185 
	C352.067810,235.780182 351.976898,231.587769 349.906403,228.947906 
	C348.055725,226.588211 348.932281,225.688400 349.922394,224.076553 
	C350.125122,223.760834 350.327820,223.445114 351.103912,223.000153 
	C352.197052,222.528320 352.716827,222.185715 353.577698,221.888718 
	C357.608154,219.945389 361.297455,217.956467 364.986755,215.967545 
z"/>
<path fill="#7C14BA" opacity="1.000000" stroke="none" 
	d="
M301.015259,163.996460 
	C299.935730,164.988266 298.856171,165.980057 297.410400,166.611755 
	C297.022156,164.153748 297.000214,162.055847 296.978485,159.533936 
	C297.007080,157.413681 297.035400,155.717407 297.272064,153.901794 
	C297.738159,153.569489 297.901886,153.299469 297.977631,152.646881 
	C297.992737,151.887634 298.001770,151.453888 298.361420,150.978500 
	C300.104279,149.601562 301.873840,148.491180 302.826172,146.893646 
	C308.091980,138.060333 314.155579,129.838486 321.011810,122.187927 
	C321.303253,122.295280 321.594666,122.402626 321.988708,123.059319 
	C322.322205,125.075981 322.553070,126.543297 322.508728,128.186249 
	C321.234222,129.662231 320.109375,130.885529 319.256012,132.275482 
	C313.804749,141.154633 308.413177,150.070450 303.001953,158.974197 
	C302.991852,159.422958 302.981750,159.871704 302.627136,160.715363 
	C301.860199,162.072342 301.437714,163.034393 301.015259,163.996460 
z"/>
<path fill="#7D1E9F" opacity="1.000000" stroke="none" 
	d="
M82.589752,252.998566 
	C82.933701,255.283630 82.933701,257.733093 82.933701,260.368347 
	C85.287949,260.859406 87.168129,261.251617 89.429947,261.723389 
	C91.214272,256.943939 92.838379,252.161072 94.815430,247.528854 
	C95.522934,245.871185 97.083328,244.577515 98.605255,243.069504 
	C96.597321,250.512146 93.521919,257.872375 92.124634,265.538452 
	C91.146927,270.902618 92.461517,276.684814 92.754585,282.280182 
	C92.805420,283.250824 92.867485,284.220886 92.549355,285.539307 
	C91.406395,285.000916 90.638451,284.114441 89.129677,282.372742 
	C88.624466,284.864563 88.304955,286.440430 87.985451,288.016327 
	C86.434303,283.975616 84.989204,279.890167 83.308647,275.904022 
	C80.348969,268.883881 83.383064,261.329620 81.278992,254.240494 
	C81.207115,253.998306 81.906113,253.527313 82.589752,252.998566 
z"/>
<path fill="#7C14BA" opacity="1.000000" stroke="none" 
	d="
M402.824036,226.027679 
	C402.824036,226.027679 402.969177,226.428223 402.963745,226.977325 
	C402.869507,228.332703 402.400665,229.407318 402.751038,229.903610 
	C406.095001,234.640701 405.821442,239.828781 404.558014,245.063110 
	C397.972839,242.897919 392.750916,236.804886 385.066589,239.812347 
	C385.036346,238.963882 385.077087,238.479187 385.330933,237.784454 
	C385.420135,236.653122 385.296173,235.731827 385.119263,234.553726 
	C385.099426,233.950653 385.132599,233.604370 385.360229,233.071106 
	C385.753906,232.586182 385.953094,232.288254 386.510101,231.944916 
	C391.230713,229.600845 395.593475,227.302155 400.301422,225.012054 
	C401.105804,225.002518 401.565002,224.984406 402.024231,224.966293 
	C402.024231,224.966293 401.999878,224.999573 402.084259,225.203308 
	C402.326141,225.678314 402.544617,225.885193 402.824036,226.027679 
z"/>
<path fill="#7C14BA" opacity="1.000000" stroke="none" 
	d="
M160.957306,208.064774 
	C161.243439,207.170593 161.268127,205.763428 161.857056,205.463287 
	C166.614105,203.038727 171.480270,200.828598 176.299484,198.524506 
	C176.551910,198.403809 176.680588,198.024353 176.948090,197.400970 
	C181.388611,197.365265 185.747955,197.693954 190.288147,198.389526 
	C183.489731,201.726486 183.331909,202.259109 187.856674,206.576675 
	C186.635574,206.687836 185.739594,206.697281 184.782440,206.595581 
	C184.447281,206.357040 184.263763,206.445770 183.753235,206.839142 
	C181.913559,206.990356 180.491318,207.053024 179.069061,207.115692 
	C174.664932,208.029114 170.260803,208.942535 165.381256,209.500259 
	C164.257339,208.780319 163.608841,208.416061 162.626740,208.047409 
	C161.847855,208.050262 161.402573,208.057526 160.957306,208.064774 
z"/>
<path fill="#A614D4" opacity="1.000000" stroke="none" 
	d="
M385.137573,240.176132 
	C392.750916,236.804886 397.972839,242.897919 404.553101,245.404083 
	C403.913910,247.542694 402.926239,249.271271 401.733826,251.095673 
	C401.272766,251.383377 401.127106,251.638443 401.074158,252.279663 
	C401.005981,253.030746 400.955811,253.458878 400.905640,253.886993 
	C399.511749,254.577148 398.117828,255.267303 396.153809,255.754242 
	C393.252777,254.276917 388.568787,255.047989 389.390991,250.950455 
	C390.279907,246.520279 388.109283,246.283386 385.074829,245.583221 
	C385.066467,243.500732 385.102020,241.838425 385.137573,240.176132 
z"/>
<path fill="#2C75EA" opacity="1.000000" stroke="none" 
	d="
M292.898865,132.642395 
	C288.614105,135.098358 284.383514,137.175430 280.191772,139.328140 
	C278.442352,140.226562 276.830231,141.416641 275.028473,142.169739 
	C274.634033,142.334610 273.697601,141.202789 272.991852,140.318848 
	C280.887573,130.653534 290.091248,123.231140 301.726044,119.380295 
	C302.044708,119.742027 302.363373,120.103752 302.682007,120.465485 
	C299.444244,124.408340 296.206482,128.351196 292.898865,132.642395 
z"/>
<path fill="#551184" opacity="1.000000" stroke="none" 
	d="
M315.998779,250.001328 
	C315.981018,249.836243 316.027710,249.591644 315.936218,249.517487 
	C311.231293,245.703720 309.938049,240.541931 310.050903,234.174911 
	C310.008392,233.547287 310.013672,233.052994 310.431091,233.044525 
	C312.241089,232.993912 313.633698,232.951767 315.399567,232.931702 
	C316.521271,232.959335 317.269714,232.964890 318.173279,233.296417 
	C321.246857,237.455383 320.372681,243.687195 326.025024,245.791016 
	C325.323120,247.289017 324.621185,248.787003 323.538696,250.906708 
	C323.044952,254.999893 322.931824,258.471405 322.818726,261.942902 
	C322.554077,261.468842 322.289459,260.994751 322.006775,259.850037 
	C321.687775,256.697601 321.386871,254.215836 321.015472,251.152695 
	C319.686462,250.847672 317.842621,250.424500 315.998779,250.001328 
z"/>
<path fill="#A614D4" opacity="1.000000" stroke="none" 
	d="
M188.181808,206.474945 
	C183.331909,202.259109 183.489731,201.726486 190.695160,198.489792 
	C197.673874,199.483658 204.426437,200.744125 211.726028,202.259155 
	C212.493622,202.763931 212.769821,202.905853 213.101669,202.939453 
	C213.101669,202.939453 213.519150,203.022400 214.004044,203.004272 
	C214.671280,202.968979 214.853622,202.951813 215.035980,202.934631 
	C215.035980,202.934631 215.020828,202.983093 215.203659,203.224777 
	C215.956345,203.613907 216.526215,203.761353 217.096069,203.908798 
	C217.517609,203.980286 217.939148,204.051773 218.811523,204.342926 
	C219.484177,204.788284 219.753250,204.905609 220.069565,204.914566 
	C220.069565,204.914566 220.502335,205.090317 220.723404,205.508209 
	C219.709244,206.292542 218.475342,206.964066 217.238541,206.969406 
	C213.176376,206.986984 209.113190,206.762817 204.639191,206.709625 
	C198.879272,206.683472 193.530533,206.579208 188.181808,206.474945 
z"/>
<path fill="#B611B5" opacity="1.000000" stroke="none" 
	d="
M349.556091,224.040146 
	C348.932281,225.688400 348.055725,226.588211 349.906403,228.947906 
	C351.976898,231.587769 352.067810,235.780182 352.930481,239.830826 
	C352.840790,240.364670 352.546844,240.425827 352.066956,240.314789 
	C349.111969,240.133484 346.634430,240.109573 344.162231,239.982269 
	C340.269623,239.781815 335.497650,234.663666 335.481598,231.605240 
	C338.573273,229.555405 341.257538,227.775665 343.941803,225.995941 
	C343.941803,225.995926 343.960083,225.949844 344.277771,225.944397 
	C345.009644,225.583603 345.423767,225.228256 345.837891,224.872894 
	C346.955200,224.583160 348.072510,224.293457 349.556091,224.040146 
z"/>
<path fill="#9816A7" opacity="1.000000" stroke="none" 
	d="
M343.552979,225.994354 
	C341.257538,227.775665 338.573273,229.555405 335.481598,231.605240 
	C335.497650,234.663666 340.269623,239.781815 344.162231,239.982269 
	C346.634430,240.109573 349.111969,240.133484 352.028503,240.434967 
	C352.469879,240.666183 352.308380,240.867752 351.991699,240.931580 
	C351.502686,241.354645 351.330383,241.713867 351.062988,242.111053 
	C350.967926,242.149017 350.854614,241.978455 350.854614,241.978455 
	C345.827881,242.963348 340.801147,243.948242 335.308838,244.521729 
	C332.045349,241.484955 329.090637,238.995377 326.591980,236.110825 
	C326.134888,235.583115 327.254852,233.221817 328.150909,232.115067 
	C329.135529,230.898911 330.702942,230.154572 332.016418,229.204666 
	C335.732330,228.134033 339.448273,227.063400 343.552979,225.994354 
z"/>
<path fill="#5E19A8" opacity="1.000000" stroke="none" 
	d="
M320.589172,122.115372 
	C314.155579,129.838486 308.091980,138.060333 302.826172,146.893646 
	C301.873840,148.491180 300.104279,149.601562 298.348694,150.520844 
	C297.228485,144.014252 298.505768,138.905197 303.504822,134.598495 
	C307.760132,130.932541 311.214355,126.336754 315.023010,122.152344 
	C316.737518,122.115837 318.452057,122.079323 320.589172,122.115372 
z"/>
<path fill="#480F82" opacity="1.000000" stroke="none" 
	d="
M230.937729,211.924606 
	C236.513229,214.574463 242.124741,217.153839 247.619751,219.961258 
	C248.326096,220.322159 248.903671,221.997147 248.676865,222.827347 
	C248.444458,223.677994 247.244370,224.580475 246.297485,224.840881 
	C245.072464,225.177811 243.678665,224.892212 242.357513,224.890106 
	C239.071915,224.884888 235.786301,224.888397 232.741180,224.888397 
	C231.163910,223.659424 229.449875,222.323898 227.340408,220.973190 
	C227.849426,218.540878 228.753906,216.123749 229.789520,213.331009 
	C229.920654,212.955383 229.993469,212.912903 230.213837,212.825043 
	C230.713120,212.552383 230.888062,212.296463 230.959534,211.959320 
	C230.960037,211.949219 230.937729,211.924606 230.937729,211.924606 
z"/>
<path fill="#501CB4" opacity="1.000000" stroke="none" 
	d="
M286.933014,236.063721 
	C290.711639,240.739410 290.529327,241.263596 284.055511,244.404602 
	C276.305389,242.535614 267.694275,243.968246 259.536224,238.197372 
	C267.893829,237.089050 275.036469,236.141861 282.803772,235.484955 
	C284.596649,235.871384 285.764832,235.967545 286.933014,236.063721 
z"/>
<path fill="#F5CA11" opacity="1.000000" stroke="none" 
	d="
M151.934555,285.960693 
	C156.890350,283.304291 162.249588,283.059845 167.135574,285.237183 
	C169.043854,286.087555 170.256195,289.591980 170.786652,292.098938 
	C171.217026,294.132874 170.153732,296.482880 169.126404,298.691803 
	C165.833557,296.559052 163.180389,294.410492 160.496811,292.300537 
	C158.269562,290.549377 157.041641,291.536896 156.264679,293.569580 
	C155.750580,292.835480 155.332642,292.418365 154.914719,292.001221 
	C154.914719,292.001221 154.991470,292.004822 155.011719,291.716858 
	C154.660263,291.291168 154.288559,291.153473 153.916840,291.015778 
	C153.916840,291.015778 153.988083,291.011719 154.029175,290.684937 
	C152.716339,289.624054 151.362411,288.889923 149.606400,287.937775 
	C150.508484,287.171722 151.221527,286.566223 151.934555,285.960693 
z"/>
<path fill="#9816A7" opacity="1.000000" stroke="none" 
	d="
M87.940712,288.315521 
	C88.304955,286.440430 88.624466,284.864563 89.129677,282.372742 
	C90.638451,284.114441 91.406395,285.000916 92.501083,285.961487 
	C94.601738,297.442444 102.104263,305.963409 107.518967,315.640411 
	C98.050995,308.737122 90.587173,300.431824 87.940712,288.315521 
z"/>
<path fill="#501CB4" opacity="1.000000" stroke="none" 
	d="
M248.004822,178.136734 
	C253.142700,179.193710 257.088959,177.001266 260.664246,173.612717 
	C262.195435,172.161530 263.923920,170.918472 265.562744,169.580856 
	C266.209656,170.084061 266.856537,170.587265 267.503448,171.090469 
	C266.128082,173.543869 264.752716,175.997284 262.857788,178.771378 
	C261.892883,179.718048 261.447540,180.344025 261.002197,180.970001 
	C261.002197,180.970001 260.996307,180.992813 260.983154,180.997040 
	C255.217331,183.106796 249.464645,185.212326 243.396317,187.433365 
	C243.448685,187.633316 243.188065,186.638107 242.865021,185.275406 
	C242.802612,184.907928 242.880798,184.890106 243.145798,184.801682 
	C243.576385,184.425583 243.741974,184.137924 243.907562,183.850266 
	C243.907562,183.850266 244.054016,183.403656 244.311920,183.058624 
	C244.780136,182.501724 244.908417,182.248322 244.954620,181.953369 
	C244.954620,181.953369 244.997345,182.001938 245.224915,181.822723 
	C245.612640,181.083328 245.772797,180.523163 245.932953,179.962997 
	C245.932953,179.962997 245.990860,179.998352 246.207855,179.847473 
	C246.629471,179.212540 246.834091,178.728470 247.277527,178.193192 
	C247.516342,178.141998 248.004822,178.136734 248.004822,178.136734 
z"/>
<path fill="#4B148F" opacity="1.000000" stroke="none" 
	d="
M314.649414,122.100464 
	C311.214355,126.336754 307.760132,130.932541 303.504822,134.598495 
	C298.505768,138.905197 297.228485,144.014252 297.998108,150.562500 
	C298.001770,151.453888 297.992737,151.887634 297.766907,152.764816 
	C297.282104,153.415909 297.119995,153.686859 297.063751,154.021149 
	C297.035400,155.717407 297.007080,157.413681 296.787262,159.542969 
	C296.595795,159.976013 296.214203,160.012253 296.154114,159.546417 
	C296.128540,151.422592 296.163055,143.764587 296.197571,136.106583 
	C296.610809,130.817688 301.106079,128.824646 304.620392,126.359764 
	C307.453217,124.372879 311.029419,123.445839 314.649414,122.100464 
z"/>
<path fill="#FDEAF8" opacity="1.000000" stroke="none" 
	d="
M322.783936,128.010620 
	C322.553070,126.543297 322.322205,125.075981 322.059448,123.301132 
	C322.686218,124.475334 323.912476,125.954521 323.919098,127.439171 
	C324.035187,153.379379 324.002075,179.320267 324.001038,205.261017 
	C324.000763,212.411346 324.106384,219.564178 323.940552,226.710678 
	C323.882263,229.223221 324.493042,230.458344 327.413635,230.349609 
	C326.266357,231.047729 324.858948,231.448334 323.307770,231.408691 
	C323.096191,217.875244 323.054230,204.781784 322.926392,191.689178 
	C322.911194,190.132645 322.427490,188.580704 322.113403,186.560654 
	C322.303192,180.684814 322.540527,175.274948 322.777893,169.865082 
	C322.815125,161.193726 322.852417,152.522369 322.883820,142.929840 
	C322.846619,137.342651 322.815277,132.676636 322.783936,128.010620 
z"/>
<path fill="#B611B5" opacity="1.000000" stroke="none" 
	d="
M163.440475,265.198914 
	C166.897171,264.645569 170.099579,263.044464 172.807663,266.190552 
	C174.813568,268.520874 175.663055,270.828400 173.759293,273.623352 
	C171.537460,276.885284 168.129929,276.728912 165.347153,275.550140 
	C162.973694,274.544769 160.245590,272.522644 161.541763,268.884430 
	C161.968903,267.685547 162.563293,266.546234 163.440475,265.198914 
z"/>
<path fill="#7D1E9F" opacity="1.000000" stroke="none" 
	d="
M323.451508,231.848938 
	C324.858948,231.448334 326.266357,231.047729 327.861633,230.384766 
	C329.139771,229.778717 330.230042,229.435013 331.668365,229.147980 
	C330.702942,230.154572 329.135529,230.898911 328.150909,232.115067 
	C327.254852,233.221817 326.134888,235.583115 326.591980,236.110825 
	C329.090637,238.995377 332.045349,241.484955 334.930054,244.448349 
	C332.299042,245.161163 329.581268,245.535919 326.444244,245.850845 
	C320.372681,243.687195 321.246857,237.455383 318.455566,233.016968 
	C320.205627,232.224045 321.828583,232.036499 323.451508,231.848938 
z"/>
<path fill="#5E19A8" opacity="1.000000" stroke="none" 
	d="
M399.956268,225.003479 
	C395.593475,227.302155 391.230713,229.600845 386.463715,231.608521 
	C385.752502,230.499313 385.445465,229.681091 385.053467,228.501862 
	C385.015625,227.170853 385.062744,226.200867 385.525055,225.172913 
	C387.613342,224.355530 389.827026,224.020126 390.833008,222.737488 
	C392.348541,220.805099 393.019928,218.210632 394.050110,215.897583 
	C396.290466,218.358917 398.530823,220.820251 400.687988,223.717194 
	C400.388611,224.436371 400.172424,224.719925 399.956268,225.003479 
z"/>
<path fill="#4B148F" opacity="1.000000" stroke="none" 
	d="
M160.613831,208.214630 
	C161.402573,208.057526 161.847855,208.050262 162.640839,208.345764 
	C163.009277,209.047394 163.030045,209.446289 163.050812,209.845169 
	C155.609604,211.816040 148.054214,213.441116 140.757660,215.850098 
	C132.637344,218.531006 124.752686,221.925659 116.400696,225.040161 
	C119.012108,222.764633 121.738304,219.976395 125.026276,218.271683 
	C129.362411,216.023590 134.053146,214.333527 138.751755,212.946594 
	C143.267181,211.613724 147.989319,210.984314 152.616150,210.024246 
	C155.172287,209.493835 157.719254,208.919205 160.613831,208.214630 
z"/>
<path fill="#FA751C" opacity="1.000000" stroke="none" 
	d="
M353.051880,125.837250 
	C353.036469,123.247078 353.021027,120.656906 353.463928,117.576447 
	C361.477020,116.861130 369.031799,116.636086 376.378418,116.569420 
	C375.360657,117.122620 374.551025,117.517441 373.344055,117.899895 
	C365.004791,118.224030 359.532806,123.204247 353.742188,127.982361 
	C353.527893,127.976395 353.099182,127.968636 352.992065,127.780136 
	C352.884979,127.591629 352.829224,127.161606 352.942139,126.840141 
	C353.053986,126.291534 353.052948,126.064392 353.051880,125.837250 
z"/>
<path fill="#FDEAF8" opacity="1.000000" stroke="none" 
	d="
M352.829224,127.161606 
	C352.829224,127.161606 352.884979,127.591629 352.869019,128.211334 
	C352.783142,143.193680 352.713257,157.556320 352.427307,172.276428 
	C352.128784,177.714890 352.120697,182.798508 351.942719,187.876160 
	C351.767273,192.880508 351.419769,197.878830 351.147736,202.879807 
	C351.147644,177.700043 351.147583,152.520264 351.746918,127.213821 
	C352.346313,127.087135 352.829224,127.161606 352.829224,127.161606 
z"/>
<path fill="#FDEAF8" opacity="1.000000" stroke="none" 
	d="
M353.700043,105.065765 
	C354.868134,104.708275 356.032990,104.053673 357.204865,104.040863 
	C365.669586,103.948196 374.142456,103.785172 382.598572,104.067780 
	C386.692169,104.204590 390.755249,105.254951 394.832123,105.891701 
	C394.808075,106.588493 394.784027,107.285294 394.759949,107.982086 
	C379.295593,107.982086 363.831207,107.982086 348.191711,107.609009 
	C353.235931,107.235931 358.455292,107.235931 363.674622,107.235931 
	C363.666138,106.512543 363.657623,105.789154 363.649139,105.065765 
	C360.332764,105.065765 357.016418,105.065765 353.700043,105.065765 
M387.935822,105.881325 
	C381.781158,105.275017 375.595856,103.724808 369.528381,106.440140 
	C375.536255,107.124168 381.541901,107.143875 387.546570,107.077942 
	C387.929413,107.073746 388.304962,106.405144 387.935822,105.881325 
z"/>
<path fill="#FDEAF8" opacity="1.000000" stroke="none" 
	d="
M287.351135,235.972290 
	C285.764832,235.967545 284.596649,235.871384 283.216888,235.490753 
	C286.520538,234.759720 290.035797,234.313156 293.795258,233.835541 
	C294.247070,215.000793 294.697449,196.226776 295.536591,177.270721 
	C295.925354,177.088669 295.948822,177.520370 295.960663,178.195358 
	C296.016266,184.916824 296.060059,190.963318 296.022125,197.471603 
	C295.939026,208.965500 295.937622,219.997604 295.936249,231.029694 
	C296.013885,237.360535 290.895477,234.943771 287.351135,235.972290 
z"/>
<path fill="#FC9715" opacity="1.000000" stroke="none" 
	d="
M156.360825,293.886536 
	C157.041641,291.536896 158.269562,290.549377 160.496811,292.300537 
	C163.180389,294.410492 165.833557,296.559052 168.769318,298.895508 
	C168.671585,300.771393 168.304398,302.442627 167.876984,304.482605 
	C164.154388,302.332306 160.491989,299.813293 156.455627,296.749023 
	C156.174713,295.431366 156.267761,294.658936 156.360825,293.886536 
z"/>
<path fill="#7D1E9F" opacity="1.000000" stroke="none" 
	d="
M385.605408,145.058334 
	C388.065826,150.151901 390.630951,155.198700 392.937195,160.361145 
	C393.915710,162.551468 394.351135,164.984451 394.726746,167.759430 
	C393.954224,168.464996 393.488342,168.718323 393.013855,168.581818 
	C391.889801,164.992035 390.774292,161.792084 389.658813,158.592133 
	C389.283508,158.698715 388.908234,158.805298 388.532928,158.911880 
	C388.104523,162.915634 387.676117,166.919388 387.193481,170.474365 
	C386.474121,165.476593 385.808990,160.927628 385.053223,155.995163 
	C384.871765,155.365936 384.781006,155.120178 384.796814,154.487976 
	C384.791962,152.774002 384.680542,151.446472 384.669495,149.680908 
	C384.933777,147.749252 385.097687,146.255661 385.377106,144.801819 
	C385.492615,144.841568 385.605408,145.058334 385.605408,145.058334 
z"/>
<path fill="#551184" opacity="1.000000" stroke="none" 
	d="
M393.915649,215.601517 
	C393.019928,218.210632 392.348541,220.805099 390.833008,222.737488 
	C389.827026,224.020126 387.613342,224.355530 385.398865,224.880066 
	C384.574890,224.107132 384.292297,223.569061 384.039886,222.722046 
	C384.021667,221.808823 383.973297,221.204544 383.924927,220.600266 
	C385.669769,217.512085 387.414612,214.423889 389.449890,211.194183 
	C391.087280,212.470261 392.434235,213.887863 393.915649,215.601517 
z"/>
<path fill="#FDEAF8" opacity="1.000000" stroke="none" 
	d="
M352.413330,296.016357 
	C352.532257,302.023254 352.651184,308.030182 352.560608,314.492188 
	C352.351135,314.947296 351.970673,315.145935 351.970673,315.145935 
	C351.640808,313.479767 351.028717,311.814484 351.023773,310.147339 
	C350.957031,287.735443 350.974945,265.323303 350.913208,242.444824 
	C350.854614,241.978455 350.967926,242.149017 351.399811,241.962555 
	C352.015198,241.613174 352.198669,241.450241 352.417206,241.710663 
	C352.459564,242.700195 352.466888,243.266403 352.333374,244.237579 
	C352.288177,245.482407 352.383820,246.322250 352.464417,247.609467 
	C352.465332,251.651596 352.481262,255.246384 352.343048,259.299866 
	C352.263672,271.844482 352.338501,283.930420 352.413330,296.016357 
z"/>
<path fill="#FDEAF8" opacity="1.000000" stroke="none" 
	d="
M322.903625,262.353271 
	C322.931824,258.471405 323.044952,254.999893 323.516846,251.319839 
	C323.827850,272.990997 323.780060,294.870697 323.316956,316.934692 
	C322.597534,302.033936 322.293427,286.948853 321.911499,271.407013 
	C322.218628,268.221405 322.603577,265.492523 322.903625,262.353271 
z"/>
<path fill="#9816A7" opacity="1.000000" stroke="none" 
	d="
M205.050385,206.631531 
	C209.113190,206.762817 213.176376,206.986984 217.238541,206.969406 
	C218.475342,206.964066 219.709244,206.292542 220.947205,205.574951 
	C224.354660,206.471802 227.759384,207.719833 231.537048,208.973206 
	C231.601410,209.752380 231.292847,210.526230 230.960999,211.612335 
	C230.937729,211.924606 230.960037,211.949219 230.750885,212.060593 
	C230.300476,212.375656 230.117722,212.622635 229.993469,212.912903 
	C229.993469,212.912903 229.920654,212.955383 229.919525,212.997330 
	C223.508240,211.363861 217.098068,209.688446 210.094177,207.619202 
	C208.017075,207.027420 206.533737,206.829483 205.050385,206.631531 
z"/>
<path fill="#FDEAF8" opacity="1.000000" stroke="none" 
	d="
M291.223633,245.469757 
	C292.330444,245.123245 293.626526,245.146667 295.397522,245.592529 
	C295.988770,253.005234 296.105103,259.995514 296.132751,267.356262 
	C296.092041,268.486481 296.140045,269.246185 296.188049,270.005890 
	C296.379395,285.357666 296.570740,300.709442 296.906036,316.440948 
	C296.365631,315.589447 295.091949,314.361725 295.084686,313.126495 
	C294.963257,292.507721 295.000244,271.888000 295.001892,251.268494 
	C295.002014,249.613831 295.001892,247.959167 295.001892,246.156570 
	C293.673370,246.039291 292.543152,245.939499 291.223633,245.469757 
z"/>
<path fill="#7D1E9F" opacity="1.000000" stroke="none" 
	d="
M271.400208,179.918442 
	C270.754486,178.565430 269.721954,176.742538 270.218597,175.564133 
	C272.814789,169.404114 275.745087,163.381027 278.704712,157.382141 
	C279.165924,156.447357 280.376404,155.882278 281.570160,155.075989 
	C278.506256,163.252457 275.112579,171.499176 271.400208,179.918442 
z"/>
<path fill="#7D1E9F" opacity="1.000000" stroke="none" 
	d="
M379.725159,326.802246 
	C371.136047,326.529663 362.546967,326.257080 353.807526,325.610657 
	C354.756287,325.126801 355.855408,325.016815 357.249878,324.926270 
	C358.092590,324.764221 358.639923,324.582764 359.642883,324.420532 
	C366.556549,324.403870 373.014618,324.367950 379.553711,324.637299 
	C379.664886,325.562439 379.695038,326.182343 379.725159,326.802246 
z"/>
<path fill="#E6A687" opacity="1.000000" stroke="none" 
	d="
M351.084534,203.353775 
	C351.419769,197.878830 351.767273,192.880508 351.942719,187.876160 
	C352.120697,182.798508 352.128784,177.714890 352.578278,172.721008 
	C353.053467,176.278809 353.161652,179.749496 353.202454,183.625610 
	C353.170563,185.966278 353.205994,187.901489 353.180054,190.290253 
	C353.154877,193.196045 353.191040,195.648285 353.167053,198.558899 
	C353.150146,206.625885 353.193359,214.234512 353.236572,221.843124 
	C352.716827,222.185715 352.197052,222.528320 351.346161,222.848450 
	C351.017120,216.493240 351.019226,210.160492 351.084534,203.353775 
z"/>
<path fill="#FDEAF8" opacity="1.000000" stroke="none" 
	d="
M379.472656,324.332031 
	C373.014618,324.367950 366.556549,324.403870 359.341492,324.308990 
	C358.041138,324.421082 357.497833,324.663971 356.954498,324.906860 
	C355.855408,325.016815 354.756287,325.126801 353.466278,325.487091 
	C350.283203,325.737427 347.291016,325.737427 344.298859,325.737427 
	C346.832367,322.696411 378.100647,321.875427 392.347961,323.715729 
	C387.771576,324.209381 383.622101,324.270691 379.472656,324.332031 
z"/>
<path fill="#B611B5" opacity="1.000000" stroke="none" 
	d="
M385.118774,246.003403 
	C388.109283,246.283386 390.279907,246.520279 389.390991,250.950455 
	C388.568787,255.047989 393.252777,254.276917 395.819458,255.831451 
	C393.673401,256.412811 391.291565,256.713745 388.153381,256.951233 
	C386.948181,256.840759 386.499329,256.793671 385.906555,256.548615 
	C385.506165,256.116394 385.204834,256.012848 384.825745,255.585938 
	C384.742401,252.406998 384.691956,249.682114 384.771851,246.724304 
	C384.974396,246.328705 385.046600,246.166046 385.118774,246.003403 
z"/>
<path fill="#7D1E9F" opacity="1.000000" stroke="none" 
	d="
M255.143463,215.400040 
	C256.246857,213.344727 257.313080,211.737244 258.712463,210.076050 
	C257.138702,219.251709 257.143402,219.244720 265.414276,224.795303 
	C266.531250,225.544907 267.573242,226.406158 268.077759,228.269104 
	C263.831421,226.405487 259.585052,224.541870 255.137543,222.384979 
	C254.993027,220.010422 255.049683,217.929153 255.143463,215.400040 
z"/>
<path fill="#FDEAF8" opacity="1.000000" stroke="none" 
	d="
M386.050507,256.746582 
	C386.499329,256.793671 386.948181,256.840759 387.726501,256.967224 
	C387.376953,258.815765 386.127594,260.578339 386.107056,262.355133 
	C385.901520,280.125854 385.898224,297.898956 385.410583,315.458313 
	C384.883789,314.430237 384.784363,313.615173 384.684937,312.800140 
	C384.660431,307.882080 384.635925,302.964050 384.719910,297.126953 
	C384.735779,284.392120 384.643127,272.576385 384.573486,260.492981 
	C384.607483,259.867371 384.618500,259.509399 384.736145,258.832336 
	C384.810028,258.291351 384.777313,258.069489 384.786560,257.648865 
	C384.828522,257.450134 384.903320,257.050812 385.199341,257.009460 
	C385.680389,256.894287 385.865448,256.820435 386.050507,256.746582 
z"/>
<path fill="#7D1E9F" opacity="1.000000" stroke="none" 
	d="
M401.938599,250.999832 
	C402.926239,249.271271 403.913910,247.542694 404.906433,245.473175 
	C405.821442,239.828781 406.095001,234.640701 402.751038,229.903610 
	C402.400665,229.407318 402.869507,228.332703 403.008820,227.185516 
	C407.140686,232.850037 409.635895,239.309097 406.867188,246.474869 
	C405.806641,249.219788 403.405975,251.446930 401.260803,253.898514 
	C400.955811,253.458878 401.005981,253.030746 401.266357,252.172638 
	C401.713409,251.546600 401.867432,251.298996 401.938599,250.999832 
z"/>
<path fill="#B611B5" opacity="1.000000" stroke="none" 
	d="
M393.022461,168.971649 
	C393.488342,168.718323 393.954224,168.464996 394.680786,168.160156 
	C394.890564,177.940872 394.839691,187.773132 394.436768,197.823959 
	C393.737518,197.016098 393.061371,195.977890 393.097595,194.965179 
	C393.301025,189.276718 393.676086,183.594406 393.988647,177.031921 
	C393.663940,173.759781 393.343201,171.365723 393.022461,168.971649 
z"/>
<path fill="#FDEAF8" opacity="1.000000" stroke="none" 
	d="
M204.639191,206.709625 
	C206.533737,206.829483 208.017075,207.027420 209.679489,207.552032 
	C199.728058,207.876541 189.597565,207.874374 179.268066,207.493958 
	C180.491318,207.053024 181.913559,206.990356 183.924469,206.891052 
	C184.513138,206.854385 184.843628,206.706726 184.843628,206.706726 
	C185.739594,206.697281 186.635574,206.687836 187.856674,206.576660 
	C193.530533,206.579208 198.879272,206.683472 204.639191,206.709625 
z"/>
<path fill="#FDEAF8" opacity="1.000000" stroke="none" 
	d="
M376.586548,116.411041 
	C369.031799,116.636086 361.477020,116.861130 353.486206,117.147797 
	C352.457001,116.720695 351.863922,116.231972 350.591583,115.183540 
	C362.465698,115.183540 373.556641,115.183540 384.828430,115.588013 
	C385.009308,115.992493 384.987305,116.012367 384.531128,116.058060 
	C381.578796,116.206177 379.082672,116.308609 376.586548,116.411041 
z"/>
<path fill="#9816A7" opacity="1.000000" stroke="none" 
	d="
M353.294922,104.996582 
	C357.016418,105.065765 360.332764,105.065765 363.649139,105.065765 
	C363.657623,105.789154 363.666138,106.512543 363.674622,107.235931 
	C358.455292,107.235931 353.235931,107.235931 347.682373,107.594742 
	C346.235718,107.953552 345.123260,107.953552 344.010803,107.953552 
	C343.963745,107.441528 343.916687,106.929512 343.869659,106.417488 
	C346.876373,105.920799 349.883118,105.424103 353.294922,104.996582 
z"/>
<path fill="#FDEAF8" opacity="1.000000" stroke="none" 
	d="
M385.753174,144.600845 
	C385.605408,145.058334 385.492615,144.841568 385.276794,144.829681 
	C385.060974,144.817780 385.070251,145.022385 385.104523,144.989777 
	C385.138794,144.957169 385.042450,144.854218 384.971588,144.377350 
	C384.793915,137.925201 384.687103,131.949905 384.705017,125.538727 
	C384.882233,122.072678 384.934784,119.042519 384.987305,116.012367 
	C384.987305,116.012367 385.009308,115.992493 385.021301,115.983749 
	C385.350739,117.948853 385.918854,119.919891 385.941071,121.897057 
	C386.024292,129.311401 385.929199,136.727753 385.753174,144.600845 
z"/>
<path fill="#E6A687" opacity="1.000000" stroke="none" 
	d="
M379.553711,324.637268 
	C383.622101,324.270691 387.771576,324.209381 392.374146,324.165649 
	C388.777283,325.073883 384.727264,325.964539 380.201233,326.828705 
	C379.695038,326.182343 379.664886,325.562439 379.553711,324.637268 
z"/>
<path fill="#FDEAF8" opacity="1.000000" stroke="none" 
	d="
M151.545074,286.009033 
	C151.221527,286.566223 150.508484,287.171722 149.606400,287.937775 
	C151.362411,288.889923 152.716339,289.624054 154.025360,290.720428 
	C150.609924,290.760193 147.239349,290.437714 142.120605,289.947968 
	C145.833435,288.349152 148.494492,287.203247 151.545074,286.009033 
z"/>
<path fill="#480F82" opacity="1.000000" stroke="none" 
	d="
M190.386230,319.867126 
	C190.147964,319.118408 189.836105,317.716675 190.308380,317.363495 
	C192.860016,315.455292 195.605911,313.806854 198.637451,312.031921 
	C196.218231,314.562653 193.446381,317.130341 190.386230,319.867126 
z"/>
<path fill="#FDEAF8" opacity="1.000000" stroke="none" 
	d="
M295.741333,136.164001 
	C296.163055,143.764587 296.128540,151.422592 296.057678,159.779175 
	C295.993927,160.643829 295.966492,160.809906 295.939026,160.975983 
	C295.622467,157.507904 295.106567,154.043777 295.037781,150.570786 
	C294.943085,145.791168 295.186523,141.004852 295.741333,136.164001 
z"/>
<path fill="#480F82" opacity="1.000000" stroke="none" 
	d="
M229.356201,272.858002 
	C230.401657,270.363983 231.765671,267.737244 233.465027,265.058746 
	C232.425171,267.579742 231.049973,270.152496 229.356201,272.858002 
z"/>
<path fill="#7D1E9F" opacity="1.000000" stroke="none" 
	d="
M295.971802,161.442566 
	C295.966492,160.809906 295.993927,160.643829 296.117767,160.245010 
	C296.214203,160.012253 296.595795,159.976013 296.787018,159.966980 
	C297.000214,162.055847 297.022156,164.153748 297.084045,166.707199 
	C296.994202,169.914490 296.864380,172.666245 296.488953,175.737915 
	C296.163788,171.341599 296.084167,166.625366 295.971802,161.442566 
z"/>
<path fill="#480F82" opacity="1.000000" stroke="none" 
	d="
M225.368759,278.859192 
	C226.148727,277.049408 227.217957,275.073425 228.641449,273.066956 
	C227.883133,274.921967 226.770584,276.807434 225.368759,278.859192 
z"/>
<path fill="#480F82" opacity="1.000000" stroke="none" 
	d="
M210.682938,260.140747 
	C210.641647,261.295929 210.301132,262.597931 209.646500,263.959076 
	C209.682831,262.774689 210.033264,261.531128 210.682938,260.140747 
z"/>
<path fill="#E6A687" opacity="1.000000" stroke="none" 
	d="
M384.398926,312.891510 
	C384.784363,313.615173 384.883789,314.430237 385.015015,315.656372 
	C384.240814,316.084412 383.434845,316.101379 382.337036,315.988464 
	C382.734436,314.899994 383.423645,313.941437 384.398926,312.891510 
z"/>
<path fill="#FDEAF8" opacity="1.000000" stroke="none" 
	d="
M156.264679,293.569580 
	C156.267761,294.658936 156.174713,295.431366 156.179382,296.579681 
	C156.110107,297.849579 155.943100,298.743591 155.490448,299.827087 
	C155.139481,297.638916 155.074142,295.261230 154.961761,292.442383 
	C155.332642,292.418365 155.750580,292.835480 156.264679,293.569580 
z"/>
<path fill="#480F82" opacity="1.000000" stroke="none" 
	d="
M208.706757,265.172607 
	C208.630417,265.994507 208.247620,266.928864 207.547424,267.933411 
	C207.620132,267.097443 208.010223,266.191284 208.706757,265.172607 
z"/>
<path fill="#501CB4" opacity="1.000000" stroke="none" 
	d="
M163.380661,209.890808 
	C163.030045,209.446289 163.009277,209.047394 162.974426,208.350159 
	C163.608841,208.416061 164.257339,208.780319 164.962341,209.442780 
	C164.582733,209.806122 164.146622,209.871277 163.380661,209.890808 
z"/>
<path fill="#5E19A8" opacity="1.000000" stroke="none" 
	d="
M91.586609,227.942474 
	C91.571625,228.582016 91.205643,229.230698 90.541946,229.942841 
	C90.574699,229.321426 90.905159,228.636505 91.586609,227.942474 
z"/>
<path fill="#9816A7" opacity="1.000000" stroke="none" 
	d="
M216.981506,203.614975 
	C216.526215,203.761353 215.956345,203.613907 215.225479,203.211792 
	C215.665298,203.078461 216.266129,203.199799 216.981506,203.614975 
z"/>
<path fill="#4F50EC" opacity="1.000000" stroke="none" 
	d="
M248.011230,177.840302 
	C248.004822,178.136734 247.516342,178.141998 247.055328,178.114471 
	C246.594299,178.086929 246.134995,177.987244 246.134995,177.987244 
	C246.541916,177.653336 246.948853,177.319443 247.667755,176.968811 
	C247.992355,177.149338 248.004990,177.346603 248.011230,177.840302 
z"/>
<path fill="#5E19A8" opacity="1.000000" stroke="none" 
	d="
M246.074432,178.310562 
	C246.134995,177.987244 246.594299,178.086929 246.816498,178.165649 
	C246.834091,178.728470 246.629471,179.212540 246.185150,179.822540 
	C245.968262,179.510269 245.991058,179.072067 246.074432,178.310562 
z"/>
<path fill="#5E19A8" opacity="1.000000" stroke="none" 
	d="
M245.657593,180.092880 
	C245.772797,180.523163 245.612640,181.083328 245.198700,181.803253 
	C245.090683,181.382935 245.236465,180.802856 245.657593,180.092880 
z"/>
<path fill="#9816A7" opacity="1.000000" stroke="none" 
	d="
M345.549316,224.902557 
	C345.423767,225.228256 345.009644,225.583603 344.302490,225.942291 
	C344.426544,225.607819 344.843658,225.270020 345.549316,224.902557 
z"/>
<path fill="#7D1E9F" opacity="1.000000" stroke="none" 
	d="
M400.301422,225.012054 
	C400.172424,224.719925 400.388611,224.436371 400.838623,224.018158 
	C401.348541,224.077698 401.624573,224.271927 401.962402,224.716217 
	C401.565002,224.984406 401.105804,225.002518 400.301422,225.012054 
z"/>
<path fill="#9816A7" opacity="1.000000" stroke="none" 
	d="
M214.965973,202.689972 
	C214.853622,202.951813 214.671280,202.968979 214.214539,202.972931 
	C214.258728,202.788269 214.577347,202.616806 214.965973,202.689972 
z"/>
<path fill="#9816A7" opacity="1.000000" stroke="none" 
	d="
M219.998322,204.658844 
	C219.753250,204.905609 219.484177,204.788284 219.130707,204.380249 
	C219.308380,204.266312 219.617722,204.334702 219.998322,204.658844 
z"/>
<path fill="#9816A7" opacity="1.000000" stroke="none" 
	d="
M213.018219,202.682617 
	C212.769821,202.905853 212.493622,202.763931 212.129745,202.324066 
	C212.302536,202.231537 212.618652,202.328659 213.018219,202.682617 
z"/>
<path fill="#E6A687" opacity="1.000000" stroke="none" 
	d="
M352.034943,315.400177 
	C351.970673,315.145935 352.351135,314.947296 352.565125,314.943726 
	C352.854340,315.115723 352.929535,315.291321 353.016327,315.753296 
	C352.718353,315.911285 352.408783,315.782837 352.034943,315.400177 
z"/>
<path fill="#5E19A8" opacity="1.000000" stroke="none" 
	d="
M243.653900,183.932678 
	C243.741974,184.137924 243.576385,184.425583 243.180084,184.822449 
	C243.099670,184.626114 243.249969,184.320618 243.653900,183.932678 
z"/>
<path fill="#5E19A8" opacity="1.000000" stroke="none" 
	d="
M244.731964,182.040009 
	C244.908417,182.248322 244.780136,182.501724 244.393951,182.838409 
	C244.090302,182.606064 244.187378,182.327209 244.731964,182.040009 
z"/>
<path fill="#FDEAF8" opacity="1.000000" stroke="none" 
	d="
M153.992081,291.280090 
	C154.288559,291.153473 154.660263,291.291168 155.008636,291.755127 
	C154.679321,291.902405 154.373322,291.723419 153.992081,291.280090 
z"/>
<path fill="#E6A687" opacity="1.000000" stroke="none" 
	d="
M352.942139,126.840141 
	C352.829224,127.161606 352.346313,127.087135 352.124603,126.985077 
	C352.102142,126.580879 352.301422,126.278755 352.776276,125.906937 
	C353.052948,126.064392 353.053986,126.291534 352.942139,126.840141 
z"/>
<path fill="#7D1E9F" opacity="1.000000" stroke="none" 
	d="
M402.847534,225.767548 
	C402.544617,225.885193 402.326141,225.678314 402.098328,225.190369 
	C402.308990,225.151596 402.590027,225.329514 402.847534,225.767548 
z"/>
<path fill="#FA751C" opacity="1.000000" stroke="none" 
	d="
M384.903320,257.050812 
	C384.903320,257.050812 384.828522,257.450134 384.625854,257.772156 
	C384.372009,258.218628 384.251617,258.365570 384.283295,258.463165 
	C384.361603,258.704620 384.509583,258.923462 384.629517,259.151428 
	C384.618500,259.509399 384.607483,259.867371 384.355286,260.537415 
	C384.114105,260.849487 383.705383,261.028076 383.705383,261.028076 
	C383.463776,268.633820 382.962219,276.244263 383.099213,283.843170 
	C383.160217,287.225769 381.949280,288.931122 379.164978,290.349548 
	C377.532898,291.180969 376.374054,292.925751 374.755157,293.804108 
	C373.697540,294.377869 371.557251,294.749664 370.993286,294.162903 
	C365.234863,288.172089 359.693420,281.972382 354.122711,275.802643 
	C353.818268,275.465485 353.792877,274.876312 353.374573,273.688599 
	C352.906769,268.262207 352.701996,263.551666 352.497223,258.841156 
	C352.481262,255.246384 352.465332,251.651596 352.643829,247.366989 
	C352.716919,245.728973 352.595551,244.780777 352.474182,243.832596 
	C352.466888,243.266403 352.459564,242.700195 352.432556,241.602509 
	C352.412842,241.071014 352.308380,240.867752 352.308380,240.867752 
	C352.308380,240.867752 352.469879,240.666183 352.508362,240.546005 
	C352.546844,240.425827 352.840790,240.364670 352.964905,240.280029 
	C357.820435,238.152084 362.551880,236.108765 367.662109,234.065292 
	C368.040955,234.065140 368.094849,234.144638 367.899689,234.422089 
	C365.774414,236.145996 364.017914,237.971039 361.875092,238.953705 
	C358.312012,240.587708 357.193451,242.739578 358.654663,246.455338 
	C361.168213,252.847229 363.358765,259.368744 365.980408,265.713776 
	C366.646515,267.325958 368.425385,268.478363 369.692963,269.842010 
	C370.842224,268.564789 372.317322,267.456787 373.083801,265.980835 
	C376.235779,259.911041 379.224091,253.753799 382.140778,247.566589 
	C382.669830,246.444321 382.787445,245.022812 382.737274,243.753616 
	C382.613525,240.623337 382.200409,237.504959 382.058777,234.374771 
	C381.938141,231.709457 382.033844,229.034332 382.033844,225.981628 
	C378.692810,227.744202 376.415375,228.945648 374.066956,230.070679 
	C373.995911,229.994263 373.855347,229.840042 373.855347,229.840042 
	C377.031982,226.833420 380.208588,223.826797 383.655060,220.710205 
	C383.973297,221.204544 384.021667,221.808823 383.989197,223.184601 
	C384.152771,231.623138 384.397125,239.290192 384.641479,246.957230 
	C384.691956,249.682114 384.742401,252.406998 384.662964,255.667603 
	C384.656464,256.485809 384.779907,256.768311 384.903320,257.050812 
z"/>
<path fill="#E6A687" opacity="1.000000" stroke="none" 
	d="
M352.343048,259.299866 
	C352.701996,263.551666 352.906769,268.262207 353.157532,273.422058 
	C353.069458,281.017456 352.935364,288.163513 352.607300,295.662964 
	C352.338501,283.930420 352.263672,271.844482 352.343048,259.299866 
z"/>
<path fill="#E6A687" opacity="1.000000" stroke="none" 
	d="
M383.782623,261.487305 
	C383.705383,261.028076 384.114105,260.849487 384.332275,260.805054 
	C384.643127,272.576385 384.735779,284.392120 384.697327,296.670532 
	C384.358307,288.885651 384.132996,280.638489 383.950714,272.390381 
	C383.873779,268.910126 383.887390,265.427887 383.782623,261.487305 
z"/>
<path fill="#E212B0" opacity="1.000000" stroke="none" 
	d="
M322.538940,169.545853 
	C322.540527,175.274948 322.303192,180.684814 322.083679,187.016800 
	C322.070374,191.982788 322.039276,196.026642 322.008209,200.070496 
	C320.030518,198.427383 317.353821,197.171280 316.193481,195.075592 
	C310.515015,184.819748 309.715302,173.448685 311.428680,162.285492 
	C312.210510,157.191406 316.425079,152.624161 319.855713,148.024902 
	C323.588043,155.009399 321.027069,162.328751 322.538940,169.545853 
z"/>
<path fill="#9816A7" opacity="1.000000" stroke="none" 
	d="
M322.017212,200.531799 
	C322.039276,196.026642 322.070374,191.982788 322.131226,187.482773 
	C322.427490,188.580704 322.911194,190.132645 322.926392,191.689178 
	C323.054230,204.781784 323.096191,217.875244 323.307770,231.408691 
	C321.828583,232.036499 320.205627,232.224045 318.300415,232.691025 
	C317.269714,232.964890 316.521271,232.959335 315.315735,232.588074 
	C310.035583,230.696106 308.793945,227.309021 308.796173,222.468124 
	C308.797424,219.734573 306.697357,217.053207 305.853119,214.255020 
	C304.129547,208.542313 302.615082,202.766510 301.014435,197.016678 
	C302.229675,195.820801 303.444916,194.624939 305.535461,192.567780 
	C310.531616,204.847595 315.403442,216.821732 320.275238,228.795853 
	C320.858917,228.695221 321.442566,228.594574 322.026245,228.493927 
	C322.026245,219.326981 322.026245,210.160049 322.017212,200.531799 
z"/>
<path fill="#7C14BA" opacity="1.000000" stroke="none" 
	d="
M300.627014,197.009491 
	C302.615082,202.766510 304.129547,208.542313 305.853119,214.255020 
	C306.697357,217.053207 308.797424,219.734573 308.796173,222.468124 
	C308.793945,227.309021 310.035583,230.696106 314.942444,232.565994 
	C313.633698,232.951767 312.241089,232.993912 310.041443,232.974670 
	C305.164734,232.270325 301.095001,231.627380 297.025299,230.984436 
	C297.025299,230.984436 297.001221,230.997559 297.014557,230.520096 
	C297.012085,219.047928 296.996277,208.053223 297.019531,197.018646 
	C297.058624,196.978760 297.144470,196.907364 297.144470,196.907364 
	C298.176178,196.938995 299.207886,196.970627 300.627014,197.009491 
z"/>
<path fill="#9816A7" opacity="1.000000" stroke="none" 
	d="
M322.508728,128.186249 
	C322.815277,132.676636 322.846619,137.342651 322.800690,142.462784 
	C322.289337,141.056488 321.855255,139.196075 321.275299,136.710464 
	C320.055664,137.477448 318.864594,137.817307 318.380554,138.596451 
	C314.921631,144.163757 311.730774,149.901047 308.164948,155.396286 
	C307.189850,156.899017 305.226776,157.760651 303.359497,158.945343 
	C308.413177,150.070450 313.804749,141.154633 319.256012,132.275482 
	C320.109375,130.885529 321.234222,129.662231 322.508728,128.186249 
z"/>
<path fill="#7D1E9F" opacity="1.000000" stroke="none" 
	d="
M296.103821,197.009796 
	C296.060059,190.963318 296.016266,184.916824 296.041931,178.395660 
	C296.440460,183.944824 296.769562,189.968643 297.121552,196.449921 
	C297.144470,196.907364 297.058624,196.978760 296.800659,197.003021 
	C296.542725,197.027267 296.103821,197.009796 296.103821,197.009796 
z"/>
<path fill="#9816A7" opacity="1.000000" stroke="none" 
	d="
M301.223938,164.229004 
	C301.437714,163.034393 301.860199,162.072342 302.620758,161.051971 
	C302.450104,162.149628 301.941376,163.305603 301.223938,164.229004 
z"/>
<path fill="#FA751C" opacity="1.000000" stroke="none" 
	d="
M353.577698,221.888718 
	C353.193359,214.234512 353.150146,206.625885 353.388733,198.811279 
	C355.385315,203.759888 357.100098,208.914505 359.173767,215.147858 
	C360.277527,214.672058 362.430145,213.950562 364.337860,212.816940 
	C365.068390,212.382828 364.977844,210.535324 365.705109,210.132050 
	C374.623993,205.186447 378.991211,196.753571 382.991211,187.627350 
	C383.006287,186.514160 383.005310,185.771881 383.191895,184.972992 
	C383.684753,184.684067 383.990082,184.451767 384.543732,184.415405 
	C385.144409,184.842102 385.496704,185.072845 385.849030,185.303589 
	C382.935364,196.237122 375.967865,204.584473 367.982208,212.886475 
	C367.335571,213.462372 367.154755,213.731216 366.973938,214.000092 
	C366.973938,214.000092 367.004913,214.005020 366.753052,214.068863 
	C366.323212,214.421570 366.145233,214.710419 365.967224,214.999268 
	C365.967224,214.999268 366.005554,215.005966 365.751648,215.066071 
	C365.320282,215.416885 365.142761,215.707611 364.965271,215.998322 
	C364.965271,215.998322 364.995667,216.000793 364.991211,215.984161 
	C361.297455,217.956467 357.608154,219.945389 353.577698,221.888718 
z"/>
<path fill="#A614D4" opacity="1.000000" stroke="none" 
	d="
M393.013855,168.581818 
	C393.343201,171.365723 393.663940,173.759781 393.992920,176.562851 
	C391.956024,177.266876 389.910889,177.561905 387.433533,177.473175 
	C387.083496,175.033981 387.165619,172.978577 387.247742,170.923157 
	C387.676117,166.919388 388.104523,162.915634 388.532928,158.911880 
	C388.908234,158.805298 389.283508,158.698715 389.658813,158.592133 
	C390.774292,161.792084 391.889801,164.992035 393.013855,168.581818 
z"/>
<path fill="#FDEAF8" opacity="1.000000" stroke="none" 
	d="
M387.193481,170.474365 
	C387.165619,172.978577 387.083496,175.033981 387.052673,177.523392 
	C386.735229,180.127075 386.366425,182.296753 385.923340,184.885010 
	C385.496704,185.072845 385.144409,184.842102 384.701202,183.947601 
	C384.604370,174.886490 384.598450,166.489136 384.697083,157.809784 
	C384.915710,157.144730 385.029785,156.761688 385.143890,156.378647 
	C385.808990,160.927628 386.474121,165.476593 387.193481,170.474365 
z"/>
<path fill="#FA751C" opacity="1.000000" stroke="none" 
	d="
M368.014038,234.025391 
	C368.903107,233.176941 369.819061,232.368240 370.881287,231.285095 
	C371.027588,231.010635 370.998688,231.000702 371.280762,230.952667 
	C371.815582,230.621597 372.068268,230.338562 372.320953,230.055511 
	C372.660828,230.000168 373.000671,229.944824 373.597961,229.864761 
	C373.855347,229.840042 373.995911,229.994263 373.970642,230.407318 
	C371.995209,231.928452 370.045044,233.036545 368.094849,234.144638 
	C368.094849,234.144638 368.040955,234.065140 368.014038,234.025391 
z"/>
<path fill="#C5129E" opacity="1.000000" stroke="none" 
	d="
M367.196991,213.912781 
	C367.154755,213.731216 367.335571,213.462372 367.763000,213.142273 
	C367.898590,213.404449 367.702057,213.649261 367.196991,213.912781 
z"/>
<path fill="#C5129E" opacity="1.000000" stroke="none" 
	d="
M366.201660,214.899689 
	C366.145233,214.710419 366.323212,214.421570 366.750916,214.053360 
	C366.812469,214.249374 366.624298,214.524734 366.201660,214.899689 
z"/>
<path fill="#C5129E" opacity="1.000000" stroke="none" 
	d="
M365.200409,215.898132 
	C365.142761,215.707611 365.320282,215.416885 365.748596,215.046844 
	C365.811462,215.244324 365.623505,215.521118 365.200409,215.898132 
z"/>
<path fill="#C5129E" opacity="1.000000" stroke="none" 
	d="
M372.035065,230.116608 
	C372.068268,230.338562 371.815582,230.621597 371.280701,230.966415 
	C371.248749,230.744690 371.498962,230.461197 372.035065,230.116608 
z"/>
<path fill="#5E19A8" opacity="1.000000" stroke="none" 
	d="
M315.587799,250.061676 
	C317.842621,250.424500 319.686462,250.847672 321.015472,251.152695 
	C321.386871,254.215836 321.687775,256.697601 321.983368,259.567993 
	C317.858276,260.536194 313.694122,260.903931 309.631378,261.755524 
	C305.658722,262.588226 301.789520,263.914398 297.432251,264.562744 
	C297.027130,260.098633 297.064636,256.095673 297.102142,252.092712 
	C303.127045,251.435822 309.151917,250.778931 315.587799,250.061676 
z"/>
<path fill="#480F82" opacity="1.000000" stroke="none" 
	d="
M297.112488,251.695404 
	C297.064636,256.095673 297.027130,260.098633 297.010132,264.567932 
	C297.014435,265.463684 296.998199,265.893097 296.788910,266.645050 
	C296.595856,266.967590 296.221436,266.985779 296.221436,266.985779 
	C296.105103,259.995514 295.988770,253.005234 295.784729,245.560425 
	C300.236603,246.234085 297.146729,249.119080 297.112488,251.695404 
z"/>
<path fill="#5E19A8" opacity="1.000000" stroke="none" 
	d="
M296.132751,267.356262 
	C296.221436,266.985779 296.595856,266.967590 296.782959,266.967621 
	C296.876740,267.878082 296.783386,268.788544 296.439056,269.852417 
	C296.140045,269.246185 296.092041,268.486481 296.132751,267.356262 
z"/>
<path fill="#5E19A8" opacity="1.000000" stroke="none" 
	d="
M261.319672,180.935394 
	C261.447540,180.344025 261.892883,179.718048 262.649597,179.047943 
	C262.519684,179.636139 262.078400,180.268478 261.319672,180.935394 
z"/>
<path fill="#5E19A8" opacity="1.000000" stroke="none" 
	d="
M297.013184,231.401169 
	C301.095001,231.627380 305.164734,232.270325 309.624054,232.983139 
	C310.013672,233.052994 310.008392,233.547287 309.997253,233.794708 
	C306.891296,234.360504 303.798309,234.698776 300.700989,234.990662 
	C298.402710,235.207245 296.728668,234.630478 297.013184,231.401169 
z"/>
<path fill="#5E19A8" opacity="1.000000" stroke="none" 
	d="
M296.022125,197.471603 
	C296.103821,197.009796 296.542725,197.027267 296.761597,197.042892 
	C296.996277,208.053223 297.012085,219.047928 297.022034,230.508392 
	C296.836212,230.984467 296.656281,230.994781 296.206299,231.017395 
	C295.937622,219.997604 295.939026,208.965500 296.022125,197.471603 
z"/>
<path fill="#5E19A8" opacity="1.000000" stroke="none" 
	d="
M297.272064,153.901794 
	C297.119995,153.686859 297.282104,153.415909 297.760803,153.090332 
	C297.901886,153.299469 297.738159,153.569489 297.272064,153.901794 
z"/>
<path fill="#E94A46" opacity="1.000000" stroke="none" 
	d="
M384.771851,246.724304 
	C384.397125,239.290192 384.152771,231.623138 383.959045,223.493546 
	C384.292297,223.569061 384.574890,224.107132 384.983673,224.938049 
	C385.062744,226.200867 385.015625,227.170853 384.951752,228.934570 
	C385.011902,230.904922 385.088837,232.081512 385.165771,233.258102 
	C385.132599,233.604370 385.099426,233.950653 385.030457,234.949615 
	C385.035706,236.399704 385.076752,237.197113 385.117798,237.994507 
	C385.077087,238.479187 385.036346,238.963882 385.066589,239.812347 
	C385.102020,241.838425 385.066467,243.500732 385.074829,245.583221 
	C385.046600,246.166046 384.974396,246.328705 384.771851,246.724304 
z"/>
<path fill="#551184" opacity="1.000000" stroke="none" 
	d="
M385.360229,233.071106 
	C385.088837,232.081512 385.011902,230.904922 385.036743,229.295609 
	C385.445465,229.681091 385.752502,230.499313 386.105896,231.653931 
	C385.953094,232.288254 385.753906,232.586182 385.360229,233.071106 
z"/>
<path fill="#551184" opacity="1.000000" stroke="none" 
	d="
M385.330933,237.784454 
	C385.076752,237.197113 385.035706,236.399704 385.083435,235.206421 
	C385.296173,235.731827 385.420135,236.653122 385.330933,237.784454 
z"/>
<path fill="#A614D4" opacity="1.000000" stroke="none" 
	d="
M184.782440,206.595581 
	C184.843628,206.706726 184.513138,206.854385 184.341888,206.802490 
	C184.263763,206.445770 184.447281,206.357040 184.782440,206.595581 
z"/>
<path fill="#7C14BA" opacity="1.000000" stroke="none" 
	d="
M401.733826,251.095673 
	C401.867432,251.298996 401.713409,251.546600 401.284363,251.849670 
	C401.127106,251.638443 401.272766,251.383377 401.733826,251.095673 
z"/>
<path fill="#E6A687" opacity="1.000000" stroke="none" 
	d="
M351.991699,240.931580 
	C352.308380,240.867752 352.412842,241.071014 352.397522,241.179169 
	C352.198669,241.450241 352.015198,241.613174 351.494873,241.924591 
	C351.330383,241.713867 351.502686,241.354645 351.991699,240.931580 
z"/>
<path fill="#4B148F" opacity="1.000000" stroke="none" 
	d="
M230.213837,212.825043 
	C230.117722,212.622635 230.300476,212.375656 230.750366,212.070709 
	C230.888062,212.296463 230.713120,212.552383 230.213837,212.825043 
z"/>
<path fill="#F9BD0A" opacity="1.000000" stroke="none" 
	d="
M383.004303,185.029602 
	C383.005310,185.771881 383.006287,186.514160 382.546356,187.626617 
	C379.771851,188.150543 377.387878,188.001404 375.158966,188.519547 
	C370.127960,189.689026 365.998322,188.206039 362.362671,184.848633 
	C360.650391,183.267441 359.273163,181.173538 357.321960,180.036148 
	C354.388367,178.326080 353.910217,176.018906 353.930725,172.964447 
	C354.031189,157.973038 353.964294,142.980484 353.956512,127.988335 
	C359.532806,123.204247 365.004791,118.224030 373.684174,117.962067 
	C374.641418,118.761955 375.212372,120.015266 375.030273,120.136368 
	C368.470032,124.499260 366.595337,131.807663 363.275970,138.265930 
	C359.407623,145.792252 358.692291,153.754028 359.075928,161.920349 
	C359.387878,168.560257 362.999603,173.584854 368.634369,176.508148 
	C373.181366,178.867142 375.748901,174.814392 378.417328,171.810013 
	C378.991455,171.163589 380.726715,170.930328 381.555969,171.312347 
	C382.300598,171.655380 382.888306,173.090195 382.931671,174.070496 
	C383.092865,177.717484 383.001099,181.375641 383.004303,185.029602 
z"/>
<path fill="#F5CA11" opacity="1.000000" stroke="none" 
	d="
M383.191895,184.972992 
	C383.001099,181.375641 383.092865,177.717484 382.931671,174.070496 
	C382.888306,173.090195 382.300598,171.655380 381.555969,171.312347 
	C380.726715,170.930328 378.991455,171.163589 378.417328,171.810013 
	C375.748901,174.814392 373.181366,178.867142 368.634369,176.508148 
	C362.999603,173.584854 359.387878,168.560257 359.075928,161.920349 
	C358.692291,153.754028 359.407623,145.792252 363.275970,138.265930 
	C366.595337,131.807663 368.470032,124.499260 375.030273,120.136368 
	C375.212372,120.015266 374.641418,118.761955 374.081543,117.974442 
	C374.551025,117.517441 375.360657,117.122620 376.378418,116.569412 
	C379.082672,116.308609 381.578796,116.206177 384.531128,116.058060 
	C384.934784,119.042519 384.882233,122.072678 384.370819,125.557892 
	C382.557373,126.891350 380.976624,127.554024 379.892822,128.690628 
	C377.181549,131.534058 374.741730,134.633896 372.110992,137.557068 
	C362.733368,147.977234 361.234680,154.644043 369.965302,165.436966 
	C371.760986,167.656815 373.911804,168.924332 376.307495,166.749817 
	C379.257935,164.071747 381.847168,160.995789 384.592529,158.091797 
	C384.598450,166.489136 384.604370,174.886490 384.452850,183.751648 
	C383.990082,184.451767 383.684753,184.684067 383.191895,184.972992 
z"/>
<path fill="#FC9715" opacity="1.000000" stroke="none" 
	d="
M353.742188,127.982361 
	C353.964294,142.980484 354.031189,157.973038 353.930725,172.964447 
	C353.910217,176.018906 354.388367,178.326080 357.321960,180.036148 
	C359.273163,181.173538 360.650391,183.267441 362.362671,184.848633 
	C365.998322,188.206039 370.127960,189.689026 375.158966,188.519547 
	C377.387878,188.001404 379.771851,188.150543 382.530304,187.997528 
	C378.991211,196.753571 374.623993,205.186447 365.705109,210.132050 
	C364.977844,210.535324 365.068390,212.382828 364.337860,212.816940 
	C362.430145,213.950562 360.277527,214.672058 359.173767,215.147858 
	C357.100098,208.914505 355.385315,203.759888 353.448853,198.352905 
	C353.191040,195.648285 353.154877,193.196045 353.398407,190.024811 
	C353.542023,187.277283 353.405914,185.248718 353.269806,183.220169 
	C353.161652,179.749496 353.053467,176.278809 352.794312,172.363556 
	C352.713257,157.556320 352.783142,143.193680 352.976105,128.399841 
	C353.099182,127.968636 353.527893,127.976395 353.742188,127.982361 
z"/>
<path fill="#E6A687" opacity="1.000000" stroke="none" 
	d="
M388.309845,105.963470 
	C388.304962,106.405144 387.929413,107.073746 387.546570,107.077942 
	C381.541901,107.143875 375.536255,107.124168 369.528381,106.440140 
	C375.595856,103.724808 381.781158,105.275017 388.309845,105.963470 
z"/>
<path fill="#F7DB0D" opacity="1.000000" stroke="none" 
	d="
M384.697083,157.809784 
	C381.847168,160.995789 379.257935,164.071747 376.307495,166.749817 
	C373.911804,168.924332 371.760986,167.656815 369.965302,165.436966 
	C361.234680,154.644043 362.733368,147.977234 372.110992,137.557068 
	C374.741730,134.633896 377.181549,131.534058 379.892822,128.690628 
	C380.976624,127.554024 382.557373,126.891350 384.246094,125.993790 
	C384.687103,131.949905 384.793915,137.925201 385.067322,144.314835 
	C385.233948,144.729187 385.070251,145.022385 385.070251,145.022385 
	C385.070251,145.022385 385.060974,144.817780 385.161285,144.789917 
	C385.097687,146.255661 384.933777,147.749252 384.489380,149.943298 
	C384.369324,152.053955 384.529785,153.464203 384.690247,154.874435 
	C384.781006,155.120178 384.871765,155.365936 385.053223,155.995163 
	C385.029785,156.761688 384.915710,157.144730 384.697083,157.809784 
z"/>
<path fill="#F5CA11" opacity="1.000000" stroke="none" 
	d="
M384.796814,154.487976 
	C384.529785,153.464203 384.369324,152.053955 384.389008,150.381332 
	C384.680542,151.446472 384.791962,152.774002 384.796814,154.487976 
z"/>
<path fill="#E6A687" opacity="1.000000" stroke="none" 
	d="
M352.333374,244.237579 
	C352.595551,244.780777 352.716919,245.728973 352.658844,246.919632 
	C352.383820,246.322250 352.288177,245.482407 352.333374,244.237579 
z"/>
<path fill="#E6A687" opacity="1.000000" stroke="none" 
	d="
M357.249878,324.926270 
	C357.497833,324.663971 358.041138,324.421082 358.885864,324.289734 
	C358.639923,324.582764 358.092590,324.764221 357.249878,324.926270 
z"/>
<path fill="#FA751C" opacity="1.000000" stroke="none" 
	d="
M353.202454,183.625610 
	C353.405914,185.248718 353.542023,187.277283 353.459778,189.571274 
	C353.205994,187.901489 353.170563,185.966278 353.202454,183.625610 
z"/>
<path fill="#E94A46" opacity="1.000000" stroke="none" 
	d="
M385.199341,257.009460 
	C384.779907,256.768311 384.656464,256.485809 384.695801,256.121643 
	C385.204834,256.012848 385.506165,256.116394 385.906555,256.548615 
	C385.865448,256.820435 385.680389,256.894287 385.199341,257.009460 
z"/>
<path fill="#E6A687" opacity="1.000000" stroke="none" 
	d="
M384.736145,258.832336 
	C384.509583,258.923462 384.361603,258.704620 384.283295,258.463165 
	C384.251617,258.365570 384.372009,258.218628 384.583893,257.970886 
	C384.777313,258.069489 384.810028,258.291351 384.736145,258.832336 
z"/>
<path fill="#7D1E9F" opacity="1.000000" stroke="none" 
	d="
M385.104523,144.989777 
	C385.070251,145.022385 385.233948,144.729187 385.138184,144.791702 
	C385.042450,144.854218 385.138794,144.957169 385.104523,144.989777 
z"/>
<path fill="#FC9715" opacity="1.000000" stroke="none" 
	d="
M367.899689,234.422089 
	C370.045044,233.036545 371.995209,231.928452 374.041687,230.483734 
	C376.415375,228.945648 378.692810,227.744202 382.033844,225.981628 
	C382.033844,229.034332 381.938141,231.709457 382.058777,234.374771 
	C382.200409,237.504959 382.613525,240.623337 382.737274,243.753616 
	C382.787445,245.022812 382.669830,246.444321 382.140778,247.566589 
	C379.224091,253.753799 376.235779,259.911041 373.083801,265.980835 
	C372.317322,267.456787 370.842224,268.564789 369.692963,269.842010 
	C368.425385,268.478363 366.646515,267.325958 365.980408,265.713776 
	C363.358765,259.368744 361.168213,252.847229 358.654663,246.455338 
	C357.193451,242.739578 358.312012,240.587708 361.875092,238.953705 
	C364.017914,237.971039 365.774414,236.145996 367.899689,234.422089 
z"/>
</svg>