<?xml version="1.0" encoding="utf-8" ?>
<svg baseProfile="tiny" height="1024" version="1.2" width="1024" xmlns="http://www.w3.org/2000/svg" xmlns:ev="http://www.w3.org/2001/xml-events" xmlns:xlink="http://www.w3.org/1999/xlink"><defs /><path d="M 792,664 791,665 785,665 795,665 796,664 799,664 Z" fill="black" /><path d="M 165,523 165,542 Z" fill="black" /><path d="M 603,511 603,630 602,631 602,634 603,635 603,641 Z" fill="black" /><path d="M 599,501 601,501 602,502 602,503 603,504 603,501 Z" fill="black" /><path d="M 547,493 549,493 550,494 554,494 555,495 561,495 562,496 565,496 566,497 569,497 570,498 578,498 579,499 587,499 588,500 595,500 588,500 587,499 582,499 581,498 575,498 574,497 568,497 567,496 562,496 561,495 556,495 555,494 551,494 550,493 Z" fill="black" /><path d="M 437,413 439,413 Z" fill="black" /><path d="M 251,412 250,413 248,413 247,414 246,414 245,415 244,415 243,416 240,416 238,418 237,418 236,419 234,419 233,420 232,420 231,421 230,421 229,422 228,422 227,423 226,423 224,425 223,425 222,426 221,426 218,429 217,429 215,431 214,431 212,433 211,433 206,438 205,438 197,446 197,447 192,452 192,453 189,456 189,457 187,459 187,460 185,462 185,463 183,465 183,466 182,467 182,468 180,470 180,471 179,472 179,473 177,475 177,476 176,477 176,479 175,480 175,481 174,482 174,484 173,485 173,487 172,488 172,490 171,491 171,492 170,493 170,497 169,498 169,500 168,501 168,504 167,505 167,512 166,513 166,518 166,513 167,512 167,508 168,507 168,503 169,502 169,499 170,498 170,495 171,494 171,492 172,491 172,488 173,487 173,485 174,484 174,482 175,481 175,480 176,479 176,478 177,477 177,476 178,475 178,474 179,473 179,472 181,470 181,469 182,468 182,467 184,465 184,464 186,462 186,461 188,459 188,458 190,456 190,455 193,452 193,451 210,434 211,434 214,431 215,431 217,429 218,429 220,427 221,427 222,426 223,426 225,424 226,424 227,423 228,423 230,421 231,421 232,420 234,420 235,419 236,419 237,418 238,418 239,417 241,417 242,416 243,416 244,415 245,415 246,414 248,414 249,413 250,413 251,412 252,412 Z" fill="black" /><path d="M 426,410 Z" fill="black" /><path d="M 261,409 260,410 257,410 256,411 254,411 256,411 257,410 260,410 261,409 263,409 Z" fill="black" /><path d="M 273,406 272,407 269,407 268,408 266,408 268,408 269,407 272,407 273,406 276,406 Z" fill="black" /><path d="M 279,405 281,405 Z" fill="black" /><path d="M 283,404 286,404 Z" fill="black" /><path d="M 744,211 743,212 721,212 720,213 712,213 711,214 706,214 705,215 703,215 708,215 709,214 714,214 715,213 726,213 727,212 759,212 760,213 761,213 762,212 763,213 768,213 769,214 770,214 771,215 770,216 741,216 740,217 705,217 704,218 702,218 701,217 696,222 695,222 693,224 692,224 691,225 690,225 689,226 688,226 687,227 686,227 685,228 683,228 682,229 681,229 680,230 678,230 677,231 674,231 673,232 669,232 668,233 665,233 664,234 661,234 660,235 659,235 658,236 656,236 655,237 650,237 649,238 628,238 627,239 621,239 620,240 616,240 615,241 613,241 612,242 611,242 610,243 609,243 608,244 607,244 606,245 605,245 604,246 603,246 602,247 601,247 599,249 598,249 597,250 596,250 595,251 594,251 592,253 591,253 588,256 587,256 584,259 583,259 579,263 578,263 573,268 572,268 554,286 554,287 549,292 549,293 544,298 544,299 540,303 540,304 537,307 537,308 535,310 535,311 533,313 533,314 531,316 531,317 528,320 528,321 526,323 526,324 524,326 524,327 522,329 522,330 520,332 520,333 518,335 518,336 517,337 517,338 515,340 515,341 513,343 513,344 512,345 512,346 510,348 510,349 509,350 509,351 507,353 507,354 506,355 506,356 505,357 505,358 503,360 503,361 502,362 502,363 501,364 501,365 500,366 500,367 499,368 499,369 497,371 497,372 496,373 496,375 495,376 495,377 493,379 493,381 491,383 491,384 490,385 490,386 489,387 489,388 488,389 488,390 487,391 487,392 486,393 486,394 485,395 485,396 484,397 484,398 483,399 483,400 482,401 482,402 480,404 480,406 479,407 479,408 478,409 478,410 477,411 477,413 476,414 476,415 475,416 475,417 474,418 474,419 473,420 473,421 470,424 468,424 467,423 466,423 465,422 463,422 462,421 461,421 460,420 459,420 458,419 456,419 455,418 454,418 453,417 451,417 450,416 447,416 446,415 444,415 443,414 441,414 443,414 444,415 446,415 447,416 449,416 450,417 452,417 453,418 454,418 455,419 456,419 457,420 459,420 460,421 461,421 462,422 463,422 464,423 466,423 467,424 468,424 470,426 471,426 472,425 472,423 473,422 473,421 474,420 474,419 475,418 475,416 476,415 476,414 477,413 477,412 478,411 478,410 479,409 479,408 480,407 480,406 481,405 481,403 482,402 482,401 483,400 483,399 485,397 485,396 486,395 486,394 487,393 487,392 488,391 488,390 489,389 489,388 490,387 490,386 491,385 491,384 492,383 492,382 493,381 493,380 494,379 494,378 495,377 495,376 497,374 497,373 498,372 498,371 499,370 499,369 500,368 500,367 501,366 501,365 502,364 502,363 504,361 504,360 505,359 505,358 506,357 506,356 507,355 507,354 508,353 508,352 510,350 510,349 511,348 511,347 513,345 513,344 515,342 515,341 516,340 516,339 518,337 518,336 520,334 520,333 522,331 522,330 524,328 524,327 527,324 527,323 529,321 529,320 531,318 531,317 534,314 534,313 536,311 536,310 538,308 538,307 541,304 541,303 544,300 544,299 549,294 549,293 555,287 555,286 573,268 574,268 579,263 580,263 583,260 584,260 587,257 588,257 591,254 592,254 593,253 594,253 596,251 597,251 598,250 599,250 601,248 602,248 603,247 604,247 605,246 606,246 607,245 608,245 609,244 611,244 612,243 613,243 614,242 616,242 617,241 618,241 619,240 620,240 621,241 619,243 618,243 609,252 609,253 606,256 606,257 603,260 603,261 601,263 601,264 599,266 599,267 597,269 597,270 595,272 595,273 593,275 593,276 592,277 592,278 591,279 591,280 590,281 590,282 589,283 589,284 588,285 588,286 586,288 586,289 585,290 585,291 584,292 584,293 583,294 583,295 582,296 582,297 581,298 581,299 580,300 580,301 579,302 579,304 578,305 578,306 577,307 577,308 576,309 576,310 575,311 575,313 574,314 574,315 573,316 573,317 572,318 572,320 571,321 571,322 570,323 570,324 569,325 569,326 568,327 568,329 567,330 567,331 566,332 566,333 565,334 565,336 564,337 564,338 563,339 563,341 562,342 562,343 561,344 561,346 560,347 560,348 559,349 559,351 558,352 558,353 557,354 557,355 556,356 556,358 555,359 555,360 554,361 554,362 553,363 553,365 552,366 552,367 551,368 551,370 550,371 550,372 549,373 549,375 548,376 548,377 547,378 547,379 546,380 546,381 545,382 545,384 544,385 544,386 543,387 543,389 542,390 542,392 541,393 541,394 540,395 540,397 539,398 539,400 538,401 538,402 537,403 537,405 536,406 536,407 535,408 535,410 534,411 534,412 533,413 533,415 532,416 532,417 531,418 531,419 530,420 530,422 529,423 529,424 528,425 528,426 527,427 527,429 526,430 526,432 525,433 525,434 524,435 524,437 523,438 523,439 522,440 522,442 521,443 521,446 522,446 523,447 524,447 525,448 526,448 528,450 529,450 530,451 531,451 532,452 533,452 535,454 536,454 537,455 538,455 540,457 541,457 542,458 543,458 545,460 546,460 547,461 548,461 550,463 551,463 552,464 553,464 554,465 555,465 557,467 558,467 559,468 560,468 562,470 561,471 560,471 559,470 558,470 557,469 556,469 555,468 554,468 553,467 552,467 551,466 550,466 549,465 548,465 547,464 546,464 545,463 544,463 543,462 542,462 541,461 540,461 539,460 538,460 537,459 535,459 534,458 532,458 531,457 530,457 529,456 528,456 527,455 526,455 525,454 523,454 522,453 521,453 520,452 517,452 517,453 516,454 516,455 514,457 514,458 513,459 513,460 512,461 512,462 511,463 511,465 510,466 510,467 509,468 509,469 508,470 508,472 507,473 507,474 506,475 506,476 505,477 505,479 504,480 504,481 503,482 503,484 502,485 502,486 501,487 501,489 500,490 500,491 499,492 499,493 498,494 498,495 497,496 497,498 496,499 496,500 495,501 495,502 494,503 494,505 493,506 493,507 492,508 492,509 491,510 491,511 490,512 490,513 489,514 489,515 488,516 488,517 487,518 487,519 486,520 486,521 485,522 485,523 484,524 484,525 482,527 482,528 481,529 481,530 480,531 480,532 479,533 479,534 478,535 478,536 477,537 477,538 476,539 476,540 475,541 475,542 474,543 474,544 473,545 473,546 471,548 471,549 470,550 470,551 468,553 468,554 467,555 467,556 466,557 466,558 464,560 464,561 463,562 463,563 461,565 461,566 459,568 459,569 457,571 457,572 455,574 455,575 453,577 453,578 452,579 452,580 450,582 450,583 448,585 448,586 445,589 445,590 443,592 443,593 441,595 441,596 438,599 438,600 436,602 436,603 433,606 433,607 429,611 429,612 423,618 423,619 413,629 413,630 401,642 400,642 397,645 396,645 393,648 392,648 390,650 389,650 386,653 385,653 383,655 382,655 380,657 379,657 377,659 376,659 375,660 374,660 373,661 372,661 371,662 370,662 369,663 368,663 367,664 366,664 365,665 363,665 362,666 360,666 359,667 358,667 357,668 355,668 354,669 353,669 352,670 351,670 350,671 347,671 346,672 344,672 343,673 341,673 340,674 339,674 338,675 336,675 335,676 332,676 331,677 318,677 317,676 314,676 313,675 312,675 309,672 309,671 308,670 308,668 307,667 307,656 308,655 308,649 309,648 309,644 310,643 310,639 311,638 311,635 312,634 312,630 313,629 313,626 314,625 314,622 315,621 315,618 316,617 316,612 317,611 317,607 318,606 319,607 319,610 320,611 321,610 322,610 323,611 322,612 323,611 324,612 324,613 327,613 328,614 329,614 334,619 335,619 337,621 338,621 339,622 339,624 338,625 338,629 337,630 337,634 336,635 336,639 335,640 335,646 334,647 334,656 335,657 335,661 336,662 336,663 338,665 338,666 339,666 340,667 342,667 343,668 348,668 349,667 351,667 352,666 353,666 354,665 355,665 368,652 368,651 371,648 371,647 374,644 374,643 376,641 376,640 378,638 378,637 380,635 380,634 381,633 381,632 383,630 383,629 384,628 384,627 386,625 386,624 387,623 387,622 388,621 388,620 390,618 390,617 391,616 391,615 392,614 392,612 394,610 394,608 395,607 395,606 396,605 396,604 397,603 397,602 398,601 398,600 399,599 399,598 400,597 400,596 401,595 401,593 402,592 402,591 403,590 403,589 404,588 404,586 405,585 405,584 406,583 406,582 407,581 407,579 408,578 408,577 409,576 409,574 410,573 410,572 411,571 411,569 412,568 412,567 413,566 413,565 414,564 414,562 415,561 415,560 416,559 416,557 417,556 417,555 418,554 418,553 419,552 419,550 420,549 420,548 421,547 421,546 422,545 422,543 423,542 423,541 424,540 424,539 425,538 425,537 426,536 426,534 427,533 427,531 428,530 428,528 429,527 429,526 430,525 430,523 431,522 431,521 432,520 432,518 433,517 433,516 434,515 434,513 435,512 435,511 436,510 436,509 437,508 437,506 438,505 438,504 439,503 439,501 440,500 440,499 441,498 441,496 442,495 442,494 443,493 443,492 444,491 444,489 445,488 445,487 446,486 446,484 447,483 447,482 448,481 448,480 449,479 449,477 450,476 450,475 451,474 451,473 452,472 452,470 453,469 453,468 454,467 454,466 455,465 455,464 456,463 456,461 457,460 457,459 458,458 458,456 459,455 459,454 460,453 460,452 461,451 461,449 462,448 462,447 463,446 463,444 464,443 464,442 465,441 465,440 466,439 466,438 467,437 467,435 468,434 468,433 469,432 468,432 467,431 465,431 464,430 462,430 461,429 458,429 457,428 454,428 453,427 451,427 450,426 447,426 446,425 443,425 442,424 437,424 436,423 431,423 430,422 420,422 419,421 376,421 375,422 365,422 364,423 355,423 354,424 350,424 349,425 344,425 343,426 337,426 336,427 330,427 329,428 324,428 323,429 318,429 317,430 313,430 312,431 309,431 308,432 305,432 304,433 301,433 300,434 297,434 296,435 293,435 292,436 289,436 288,437 285,437 284,438 282,438 281,439 279,439 278,440 275,440 274,441 272,441 271,442 269,442 268,443 266,443 265,444 263,444 262,445 260,445 259,446 258,446 257,447 255,447 254,448 253,448 252,449 250,449 249,450 248,450 246,452 245,452 244,453 243,453 241,455 240,455 238,457 237,457 235,459 234,459 232,461 231,461 227,465 226,465 219,472 218,472 217,473 217,474 211,480 211,481 208,484 208,485 205,488 205,489 203,491 203,492 201,494 201,495 199,497 199,498 198,499 198,500 197,501 197,502 196,503 196,504 195,505 195,506 194,507 194,508 193,509 193,510 192,511 192,512 191,513 191,515 190,516 190,518 189,519 189,521 188,522 188,524 187,525 187,527 186,528 186,531 185,532 185,537 184,538 184,546 183,547 183,561 184,562 184,571 185,572 185,578 186,579 186,583 187,584 187,586 188,587 188,590 189,591 189,593 190,594 190,596 191,597 191,599 192,600 192,601 193,602 193,604 194,605 194,606 195,607 195,608 197,610 197,611 198,612 198,613 199,614 199,615 200,616 200,617 202,619 202,620 204,622 204,623 206,625 206,626 209,629 209,630 212,633 212,634 216,638 216,639 224,647 225,647 230,652 231,652 235,656 236,656 238,658 239,658 240,659 241,659 242,660 243,660 245,662 244,663 243,663 242,662 241,662 240,661 239,661 238,660 237,660 235,658 234,658 231,655 230,655 229,654 228,654 224,650 223,650 220,647 219,647 216,644 215,644 203,632 203,631 198,626 198,625 195,622 195,621 192,618 192,617 190,615 190,614 188,612 188,611 187,610 187,609 185,607 185,606 184,605 184,604 183,603 183,602 182,601 182,600 181,599 181,598 180,597 180,596 179,595 179,594 178,593 178,591 177,590 177,589 176,588 176,586 175,585 175,583 174,582 174,580 173,579 173,578 172,577 172,575 171,574 171,571 170,570 170,567 169,566 169,563 168,562 168,559 167,558 167,553 166,552 166,546 166,552 167,553 167,560 168,561 168,564 169,565 169,567 170,568 170,571 171,572 171,574 172,575 172,577 173,578 173,581 174,582 174,584 175,585 175,586 176,587 176,590 177,591 177,592 178,593 178,594 179,595 179,597 180,598 180,599 182,601 182,602 183,603 183,604 184,605 184,606 185,607 185,608 186,609 186,610 189,613 189,614 190,615 190,616 193,619 193,620 196,623 196,624 201,629 201,630 217,646 218,646 222,650 223,650 226,653 227,653 229,655 230,655 233,658 234,658 235,659 236,659 238,661 239,661 240,662 241,662 242,663 243,663 244,664 245,664 246,665 247,665 248,666 249,666 250,667 251,667 252,668 254,668 255,669 256,669 257,670 259,670 260,671 263,671 264,672 267,672 268,673 272,673 273,674 279,674 280,675 286,675 287,676 301,676 302,677 306,677 307,678 312,678 313,679 323,679 324,678 331,678 332,677 336,677 337,676 339,676 340,675 343,675 344,674 347,674 348,673 350,673 351,672 353,672 354,671 356,671 357,670 359,670 360,669 361,669 362,668 363,668 364,667 365,667 366,666 367,666 368,665 369,665 370,664 371,664 373,662 374,662 375,661 376,661 377,660 378,660 379,659 380,659 381,658 382,658 385,655 386,655 388,653 389,653 391,651 392,651 396,647 397,647 401,643 402,643 415,630 415,629 425,619 425,618 431,612 431,611 434,608 434,607 437,604 437,603 439,601 439,600 442,597 442,596 444,594 444,593 447,590 447,589 448,588 448,587 450,585 450,584 452,582 452,581 453,580 453,579 455,577 455,576 457,574 457,573 459,571 459,570 460,569 460,568 463,565 463,564 464,563 464,562 466,560 466,559 467,558 467,557 469,555 469,554 470,553 470,552 471,551 471,550 473,548 473,546 475,544 475,543 476,542 476,541 477,540 477,539 479,537 479,536 480,535 480,534 481,533 481,532 482,531 482,530 483,529 483,528 484,527 484,526 485,525 485,524 486,523 486,522 487,521 487,520 488,519 488,518 489,517 489,516 490,515 490,514 491,513 491,512 492,511 492,510 493,509 493,508 494,507 494,506 495,505 495,503 496,502 496,501 497,500 497,499 498,498 498,497 499,496 499,495 500,494 500,493 502,491 502,490 505,487 506,487 508,485 510,485 511,484 512,484 513,485 520,485 521,486 523,486 525,488 526,488 527,489 530,489 531,490 534,490 535,491 540,491 541,492 545,492 543,492 542,491 539,491 538,490 536,490 535,489 533,489 532,488 530,488 529,487 526,487 525,486 523,486 522,485 523,484 535,484 536,483 550,483 551,482 559,482 560,481 570,481 571,480 588,480 589,479 600,479 601,478 602,478 602,433 603,432 603,430 602,429 602,421 603,420 603,306 604,305 604,287 603,286 603,281 604,280 604,275 605,274 605,272 606,271 606,270 608,268 608,267 610,265 611,265 615,261 616,261 618,259 619,259 621,257 622,257 623,256 624,256 626,254 627,254 629,252 630,252 631,251 632,251 633,250 635,250 636,249 637,249 638,248 640,248 641,247 643,247 644,246 649,246 650,245 653,245 654,246 656,246 658,248 658,249 659,250 659,291 658,292 658,348 659,349 659,471 664,471 665,470 668,470 669,469 673,469 674,468 677,468 678,467 681,467 682,466 684,466 685,465 688,465 689,464 691,464 692,463 695,463 696,462 698,462 699,461 701,461 702,460 704,460 705,459 707,459 708,458 710,458 711,457 713,457 714,456 716,456 717,455 718,455 719,454 719,453 720,452 721,453 722,453 723,452 724,452 725,451 726,451 728,449 729,449 730,448 731,448 733,446 734,446 736,444 737,444 740,441 741,441 744,438 745,438 750,433 751,433 759,425 759,424 765,418 765,417 769,413 769,412 771,410 771,409 773,407 773,406 774,405 774,404 775,403 775,402 777,400 777,399 778,398 778,397 779,396 779,395 780,394 780,393 781,392 781,391 782,390 782,388 783,387 783,386 784,385 784,383 785,382 785,380 786,379 786,377 787,376 787,373 788,372 788,369 789,368 789,363 790,362 790,331 789,330 789,326 788,325 788,321 787,320 787,318 786,317 786,316 785,315 785,305 784,304 784,293 785,292 788,295 788,296 790,298 790,299 791,300 791,301 792,302 792,304 793,305 793,306 794,307 794,308 795,309 795,310 796,311 796,313 797,314 797,315 798,316 798,318 799,319 799,320 800,321 800,323 801,324 801,327 802,328 802,330 803,331 803,334 804,335 804,338 805,339 805,342 806,343 806,347 807,348 807,356 808,357 808,375 807,376 807,386 806,387 806,393 805,394 805,400 804,401 804,405 803,406 803,410 802,411 802,413 801,414 801,416 800,417 800,419 799,420 799,421 798,422 798,423 797,424 797,425 796,426 796,427 795,428 795,430 796,431 797,431 802,436 803,436 808,441 808,442 814,448 814,449 818,453 818,454 820,456 820,457 822,459 822,460 823,461 823,462 824,463 824,464 825,465 825,466 826,467 826,468 827,469 827,470 828,471 828,473 829,474 829,476 830,477 830,480 831,481 831,499 830,500 830,502 829,503 829,504 828,505 828,506 827,507 827,508 819,516 818,516 816,518 815,518 814,519 813,519 812,520 810,520 809,521 807,521 806,522 803,522 802,523 793,523 792,524 785,524 784,523 784,486 783,485 783,449 780,452 780,453 775,458 774,458 764,468 763,468 760,471 759,471 757,473 756,473 755,474 754,474 752,476 751,476 750,477 749,477 747,479 746,479 745,480 744,480 743,481 742,481 741,482 740,482 739,483 738,483 737,484 736,484 735,485 734,485 733,486 732,486 731,487 729,487 728,488 727,488 726,489 724,489 723,490 721,490 720,491 716,491 715,492 713,492 712,493 709,493 708,494 704,494 703,495 699,495 698,496 693,496 692,497 687,497 686,498 680,498 679,499 673,499 672,500 664,500 663,501 660,501 659,502 659,645 657,647 654,647 653,646 652,647 648,647 647,646 621,646 620,645 607,645 606,646 607,646 608,647 611,647 612,648 618,648 619,649 641,649 642,650 653,650 654,651 659,651 660,652 664,652 665,653 669,653 670,654 673,654 674,655 679,655 680,656 686,656 687,657 691,657 692,658 694,658 695,659 696,659 697,660 698,660 700,662 799,662 800,661 799,660 798,660 797,659 795,659 794,658 793,658 792,657 790,657 789,656 788,656 786,654 785,654 782,651 782,648 784,646 782,646 781,645 771,645 770,646 735,646 734,645 721,645 720,644 720,625 719,624 719,562 720,561 720,560 721,559 722,560 722,565 723,566 723,570 724,571 724,574 726,576 725,577 728,577 729,578 729,579 731,579 732,580 732,582 734,584 734,585 736,587 736,589 737,590 737,591 739,591 741,593 740,594 740,595 742,595 743,596 744,596 745,597 745,598 746,598 751,603 752,603 753,604 753,606 754,606 755,607 754,608 755,607 757,609 757,610 758,610 759,611 759,612 762,615 763,615 765,617 765,621 766,621 767,620 768,620 769,621 769,626 771,626 772,627 772,631 773,632 772,633 773,634 771,636 771,637 772,638 774,638 775,639 775,642 774,643 773,643 771,641 770,641 769,642 769,643 776,643 777,642 778,643 781,643 782,642 781,641 782,640 782,536 783,535 783,526 784,525 785,526 785,540 784,541 784,545 785,546 785,557 784,558 784,599 785,600 784,601 784,603 785,604 785,642 785,641 786,640 786,639 785,638 785,637 786,636 786,631 785,630 785,530 786,529 786,527 789,524 800,524 801,523 806,523 807,522 809,522 810,521 812,521 813,520 814,520 815,519 816,519 818,517 819,517 822,514 823,514 824,513 824,512 827,509 827,508 828,507 828,506 829,505 829,504 830,503 830,502 831,501 831,492 832,491 832,487 831,486 831,479 830,478 830,475 829,474 829,472 828,471 828,469 827,468 827,467 826,466 826,465 825,464 825,463 824,462 824,461 823,460 823,459 821,457 821,456 819,454 819,453 815,449 815,448 812,445 812,444 808,440 808,439 807,438 806,438 805,437 805,436 804,436 799,431 799,423 800,422 800,420 801,419 801,418 802,417 802,414 803,413 803,410 804,409 804,408 805,407 805,403 806,402 806,397 807,396 807,392 808,391 808,378 809,377 809,365 808,364 808,348 807,347 807,343 806,342 806,339 805,338 805,333 804,332 804,329 803,328 803,326 802,325 802,323 801,322 801,320 800,319 800,318 799,317 799,315 798,314 798,313 797,312 797,310 796,309 796,308 795,307 795,306 794,305 794,304 793,303 793,302 792,301 792,300 791,299 791,298 790,297 790,296 787,293 787,291 786,290 786,243 787,242 787,237 788,236 788,235 790,233 790,232 796,226 796,225 798,223 798,222 800,220 800,217 797,214 793,214 792,213 784,213 783,212 765,212 764,211 Z" fill="black" /></svg>