<?xml version="1.0" standalone="no"?>
<!DOCTYPE svg PUBLIC "-//W3C//DTD SVG 20010904//EN"
 "http://www.w3.org/TR/2001/REC-SVG-20010904/DTD/svg10.dtd">
<svg version="1.0" xmlns="http://www.w3.org/2000/svg"
 width="1200.000000pt" height="1200.000000pt" viewBox="0 0 1200.000000 1200.000000"
 preserveAspectRatio="xMidYMid meet">

<g transform="translate(0.000000,1200.000000) scale(0.100000,-0.100000)"
fill="#000000" stroke="none">
<path d="M8230 9465 c0 -13 72 -15 585 -15 513 0 585 2 585 15 0 13 -72 15
-585 15 -513 0 -585 -2 -585 -15z"/>
<path d="M8450 9230 c8 -5 20 -10 25 -10 6 0 3 5 -5 10 -8 5 -19 10 -25 10 -5
0 -3 -5 5 -10z"/>
<path d="M7192 9150 c-89 -32 -246 -119 -338 -188 -232 -174 -526 -520 -754
-887 -334 -538 -590 -1082 -1083 -2301 -317 -781 -501 -1160 -685 -1404 -36
-47 -85 -107 -111 -134 l-46 -49 36 6 c57 8 183 65 267 119 375 245 732 689
1105 1378 238 439 452 917 830 1855 394 977 568 1316 806 1568 58 61 55 66
-27 37z"/>
<path d="M7525 9106 c-55 -17 -159 -71 -225 -116 -140 -95 -201 -175 -219
-290 -7 -43 -11 -453 -11 -1191 l0 -1127 -52 -6 c-63 -7 -331 -28 -671 -53
-137 -10 -240 -21 -230 -25 40 -17 267 -68 403 -92 148 -25 333 -50 473 -62
l77 -6 0 -768 c0 -422 3 -808 6 -858 l7 -92 323 0 324 0 0 859 0 858 92 7
c305 23 651 105 865 206 202 94 399 261 516 437 284 426 341 941 162 1452 -37
106 -126 294 -145 306 -20 13 -11 -175 15 -300 61 -292 39 -540 -72 -810 -105
-257 -277 -481 -483 -627 -185 -131 -490 -246 -825 -312 -44 -9 -90 -18 -102
-21 l-23 -5 0 1275 c0 1375 2 1321 -51 1359 -28 19 -97 20 -154 2z"/>
<path d="M3560 7274 c-317 -33 -600 -103 -835 -208 -114 -51 -275 -168 -375
-273 -195 -203 -313 -434 -372 -726 -20 -95 -23 -142 -23 -312 1 -178 4 -214
28 -326 92 -436 328 -816 657 -1061 73 -55 284 -178 305 -178 5 0 -24 19 -65
43 -328 186 -572 504 -683 887 -37 126 -51 261 -44 419 16 351 161 675 417
932 169 169 319 257 598 349 415 137 979 218 1947 280 205 13 208 14 173 28
-97 40 -560 119 -853 146 -212 20 -682 20 -875 0z"/>
<path d="M8232 4223 c3 -17 40 -18 586 -21 577 -2 582 -2 582 18 0 20 -6 20
-586 20 -552 0 -585 -1 -582 -17z"/>
<path d="M2180 3145 l0 -745 3820 0 3820 0 0 745 0 745 -3820 0 -3820 0 0
-745z m7600 0 l0 -705 -3780 0 -3780 0 0 705 0 705 3780 0 3780 0 0 -705z"/>
<path d="M3954 3536 c-17 -7 -40 -26 -52 -40 -21 -28 -42 -104 -42 -156 0 -28
-3 -30 -35 -30 -24 0 -35 -5 -35 -15 0 -10 11 -15 35 -15 l35 0 -2 -182 c-3
-179 -4 -183 -25 -193 -13 -5 -23 -15 -23 -22 0 -10 24 -13 90 -13 73 0 90 3
90 15 0 9 -9 15 -25 15 l-25 0 0 190 0 190 60 0 c47 0 60 3 60 15 0 12 -13 15
-60 15 l-60 0 0 73 c0 94 14 121 63 125 33 3 37 1 37 -21 0 -31 23 -51 50 -42
26 8 27 56 0 80 -25 23 -97 29 -136 11z"/>
<path d="M4455 3535 c-16 -8 -45 -14 -62 -15 -44 0 -45 -28 -2 -32 l31 -3 -1
-279 c-2 -280 -5 -306 -37 -306 -8 0 -14 -7 -14 -15 0 -12 17 -15 90 -15 73 0
90 3 90 15 0 9 -9 15 -25 15 l-25 0 0 325 c0 179 -3 325 -7 324 -5 0 -21 -7
-38 -14z"/>
<path d="M2623 3494 c-15 -24 -15 -29 -2 -53 10 -17 23 -26 39 -26 16 0 29 9
39 26 13 24 13 29 -2 53 -10 14 -26 26 -37 26 -11 0 -27 -12 -37 -26z"/>
<path d="M8675 3493 c-3 -10 -47 -130 -96 -267 -115 -318 -113 -314 -144 -326
-49 -19 -26 -30 60 -30 69 0 85 3 85 15 0 10 -10 15 -28 15 -16 0 -31 2 -34 5
-3 3 6 40 21 83 l26 77 114 0 114 0 19 -55 c24 -70 21 -104 -9 -108 -13 -2
-23 -10 -23 -18 0 -11 20 -14 100 -14 80 0 100 3 100 14 0 8 -12 16 -27 18
-22 2 -29 10 -36 39 -15 64 -212 562 -223 566 -7 2 -15 -4 -19 -14z m28 -183
c8 -25 29 -82 46 -127 l30 -83 -100 0 c-99 0 -100 0 -93 23 32 104 88 247 94
240 4 -4 14 -28 23 -53z"/>
<path d="M9250 3475 c0 -10 10 -15 30 -15 l30 0 0 -249 c0 -258 -5 -299 -40
-308 -11 -3 -20 -12 -20 -19 0 -11 21 -14 95 -14 76 0 95 3 95 14 0 9 -12 16
-27 18 l-28 3 -3 240 c-3 276 -1 301 34 317 44 20 25 28 -71 28 -78 0 -95 -3
-95 -15z"/>
<path d="M3240 3315 c-19 -9 -42 -23 -52 -32 -17 -15 -18 -14 -18 12 0 25 -3
27 -27 21 -16 -4 -45 -9 -65 -13 -47 -7 -52 -33 -7 -33 l31 0 -4 -167 c-3 -93
-8 -175 -12 -185 -4 -9 -16 -18 -27 -21 -10 -3 -19 -10 -19 -16 0 -7 32 -11
90 -11 73 0 90 3 90 15 0 9 -9 15 -25 15 l-25 0 0 164 0 165 29 20 c62 44 130
39 161 -12 17 -28 20 -50 20 -174 0 -141 0 -143 -25 -159 -14 -9 -25 -20 -25
-25 0 -5 41 -9 90 -9 73 0 90 3 90 15 0 9 -9 15 -25 15 l-25 0 0 141 c0 163
-11 216 -51 255 -36 34 -115 43 -169 19z"/>
<path d="M4900 3314 c-19 -7 -43 -13 -52 -13 -31 -1 -21 -31 10 -31 l27 0 1
-148 c1 -168 12 -209 66 -242 46 -29 122 -23 178 14 41 27 42 27 47 7 5 -18
13 -21 64 -21 46 0 59 3 59 15 0 10 -10 15 -30 15 l-30 0 7 210 c6 209 6 210
-15 210 -11 0 -23 -4 -26 -9 -3 -5 -26 -12 -51 -15 -53 -8 -64 -36 -15 -36
l30 0 0 -148 c0 -141 -1 -150 -22 -169 -52 -47 -114 -57 -147 -24 -32 32 -41
87 -41 249 0 166 2 160 -60 136z"/>
<path d="M5725 3313 c-102 -53 -149 -180 -114 -306 22 -82 116 -147 209 -147
43 0 127 39 159 73 37 41 16 49 -39 15 -131 -81 -233 -26 -247 133 l-6 59 157
0 157 0 -7 38 c-11 64 -44 111 -96 138 -36 19 -135 17 -173 -3z m136 -23 c24
-13 49 -61 49 -95 l0 -25 -110 0 c-60 0 -110 2 -110 5 0 2 7 23 17 46 25 65
99 98 154 69z"/>
<path d="M6484 3305 c-27 -14 -50 -25 -51 -25 -2 0 -3 10 -3 21 0 18 -4 20
-27 15 -16 -4 -47 -9 -70 -13 -51 -7 -58 -30 -12 -35 l32 -3 -2 -170 c-2 -167
-8 -195 -37 -195 -8 0 -14 -7 -14 -15 0 -12 17 -15 90 -15 73 0 90 3 90 15 0
9 -9 15 -25 15 l-25 0 0 164 0 165 26 20 c38 30 89 37 130 18 46 -22 56 -63
52 -222 -3 -124 -4 -130 -25 -140 -13 -5 -23 -15 -23 -22 0 -10 24 -13 90 -13
73 0 90 3 90 15 0 9 -9 15 -24 15 l-24 0 -4 163 c-3 130 -7 168 -21 195 -39
72 -125 91 -213 47z"/>
<path d="M7192 3309 c-116 -58 -164 -217 -103 -338 34 -66 111 -111 190 -111
47 0 132 40 160 75 33 43 10 55 -33 17 -45 -39 -97 -50 -150 -31 -95 33 -135
192 -77 306 32 63 111 91 171 60 20 -10 25 -20 25 -51 0 -26 6 -42 18 -50 38
-24 73 36 47 83 -31 59 -166 80 -248 40z"/>
<path d="M7890 3319 c-36 -15 -88 -68 -113 -114 -31 -58 -30 -163 2 -228 41
-83 128 -127 223 -113 48 7 132 56 142 82 11 30 -6 34 -34 10 -66 -55 -160
-59 -211 -10 -34 32 -48 70 -51 139 l-3 50 153 3 152 3 0 27 c-1 43 -35 107
-71 133 -26 18 -49 24 -99 26 -36 2 -76 -2 -90 -8z m124 -30 c14 -7 32 -28 40
-51 28 -68 29 -68 -94 -68 -124 0 -131 6 -87 71 37 54 88 72 141 48z"/>
<path d="M2645 3310 c-11 -5 -35 -9 -52 -9 -44 -1 -45 -29 -2 -33 l31 -3 -1
-170 c-2 -167 -7 -195 -37 -195 -8 0 -14 -7 -14 -15 0 -12 17 -15 90 -15 73 0
90 3 90 15 0 9 -9 15 -25 15 l-25 0 0 210 c0 228 1 224 -55 200z"/>
</g>
</svg>
